<svg width="184" height="213" viewBox="0 0 184 213" fill="none" xmlns="http://www.w3.org/2000/svg">
<path d="M153.333 79.875H84.3333C75.865 79.875 69 87.8219 69 97.625V177.5C69 187.303 75.865 195.25 84.3333 195.25H153.333C161.802 195.25 168.667 187.303 168.667 177.5V97.625C168.667 87.8219 161.802 79.875 153.333 79.875Z" stroke="#FFCC7E" stroke-width="9" stroke-linecap="round" stroke-linejoin="round"/>
<path d="M38.3333 133.125H30.6667C26.6 133.125 22.6999 131.255 19.8244 127.926C16.9488 124.597 15.3333 120.083 15.3333 115.375V35.5C15.3333 30.7924 16.9488 26.2776 19.8244 22.9489C22.6999 19.6201 26.6 17.75 30.6667 17.75H99.6667C103.733 17.75 107.633 19.6201 110.509 22.9489C113.385 26.2776 115 30.7924 115 35.5V44.375" stroke="#FFCC7E" stroke-width="9" stroke-linecap="round" stroke-linejoin="round"/>
<rect width="184" height="213" stroke="#FFCC7E"/>
</svg>
