<svg width="120" height="111" viewBox="0 0 120 111" fill="none" xmlns="http://www.w3.org/2000/svg">
<g clip-path="url(#clip0)">
<rect width="1440" height="8384" transform="translate(-465 -6734)" fill="#141413"/>
<path d="M39.5555 93.7598C40.368 93.7601 41.1471 94.0831 41.7215 94.6578C42.2958 95.2325 42.6183 96.0118 42.618 96.8243C42.6178 97.6368 42.2947 98.4159 41.72 98.9903C41.1453 99.5646 40.366 99.8871 39.5535 99.8868C38.741 99.8866 37.9619 99.5635 37.3876 98.9888C36.8132 98.4141 36.4907 97.6348 36.491 96.8223C36.4913 96.0098 36.8143 95.2307 37.389 94.6564C37.9637 94.082 38.743 93.7595 39.5555 93.7598ZM66.0972 93.7598C66.9097 93.7601 67.6888 94.0831 68.2631 94.6578C68.8375 95.2325 69.16 96.0118 69.1597 96.8243C69.1594 97.6368 68.8364 98.4159 68.2617 98.9903C67.687 99.5646 66.9077 99.8871 66.0952 99.8868C65.2827 99.8866 64.5036 99.5635 63.9292 98.9888C63.3549 98.4141 63.0324 97.6348 63.0327 96.8223C63.0329 96.0098 63.356 95.2307 63.9307 94.6564C64.5054 94.082 65.2847 93.7595 66.0972 93.7598ZM32.7609 56.5137L40.5743 64.3292V87.6348H69.1597V91.7181H38.5347C37.9932 91.7181 37.4739 91.503 37.091 91.1201C36.7081 90.7373 36.493 90.2179 36.493 89.6765V66.0197L29.8699 59.4026L32.7588 56.5137H32.7609ZM60.993 59.0515C61.5345 59.0515 62.0538 59.2666 62.4367 59.6495C62.8196 60.0323 63.0347 60.5516 63.0347 61.0931V65.1765H69.1454C70.2826 65.1765 71.2014 66.1075 71.2014 67.2079V83.5617C71.2 83.8301 71.1458 84.0957 71.0417 84.3432C70.9376 84.5906 70.7857 84.8151 70.5947 85.0038C70.4038 85.1925 70.1775 85.3417 69.9288 85.4428C69.6801 85.5439 69.4139 85.595 69.1454 85.5931H44.674C44.1329 85.5932 43.6137 85.3799 43.2288 84.9996C42.8439 84.6194 42.6245 84.1027 42.618 83.5617V67.2079C42.6194 66.9395 42.6736 66.6739 42.7777 66.4264C42.8818 66.179 43.0337 65.9545 43.2247 65.7658C43.4157 65.5771 43.642 65.4279 43.8907 65.3268C44.1393 65.2257 44.4055 65.1746 44.674 65.1765H50.7827L50.7847 61.0931C50.7847 60.5516 50.9998 60.0323 51.3827 59.6495C51.7656 59.2666 52.2849 59.0515 52.8264 59.0515H60.993ZM50.7847 69.2598H48.743V81.5098H50.7847V69.2598ZM65.0764 69.2598H63.0347V81.5098H65.0764V69.2598ZM58.9514 63.1348H54.868V65.1765H58.9514V63.1348Z" fill="#FFCC7E"/>
<path d="M73.9637 33.9757C73.0011 33.2215 72.06 32.8723 71.1451 32.5307C70.1669 32.1649 69.2439 31.8195 68.2422 31.0064C67.5699 30.4668 67.0002 29.8011 66.5344 29.0337L66.2033 28.4889L61.2499 34.4651L61.4142 34.7412C61.8442 35.4606 62.3633 36.1004 62.9582 36.643C63.0527 36.7291 63.1469 36.8112 63.2414 36.8895C64.2955 37.7633 65.3346 38.1523 66.3411 38.5309C67.4026 38.9292 68.4043 39.3044 69.4246 40.2345C69.9635 40.7299 70.4268 41.3017 70.7997 41.9315L71.1296 42.4834L76.085 36.5048L75.9244 36.23C75.5088 35.5198 74.9871 34.8772 74.3775 34.3246C74.2438 34.2033 74.1057 34.087 73.9637 33.9757ZM73.4067 34.6862C73.5285 34.7813 73.6503 34.8822 73.7725 34.9917C73.8987 35.1058 74.0197 35.2261 74.1374 35.3497C74.0087 35.6133 73.9872 35.9166 74.0774 36.1958C74.1676 36.4749 74.3626 36.7082 74.6212 36.8467L71.9818 40.0311C71.8866 39.9127 71.7685 39.8148 71.6346 39.743C71.5007 39.6712 71.3538 39.627 71.2025 39.6131C71.0512 39.5992 70.8987 39.6159 70.754 39.6621C70.6093 39.7083 70.4753 39.7831 70.3601 39.882C70.2541 39.7741 70.1451 39.6691 70.0331 39.5673C68.8819 38.5246 67.7518 38.0949 66.6556 37.6844C65.5923 37.2859 64.5856 36.9077 63.5662 35.9778C63.4398 35.8614 63.3176 35.7404 63.1999 35.6151C63.3277 35.3517 63.3486 35.0491 63.2583 34.7706C63.168 34.4922 62.9734 34.2594 62.7154 34.1211L65.3548 30.9368C65.4507 31.0558 65.5696 31.1542 65.7045 31.226C65.8393 31.2979 65.9873 31.3417 66.1396 31.3549C66.2918 31.368 66.4452 31.3503 66.5904 31.3026C66.7356 31.255 66.8696 31.1784 66.9845 31.0776C67.2035 31.3011 67.4313 31.5141 67.6734 31.7083C68.79 32.6149 69.8273 33.0019 70.8309 33.3769C71.715 33.7066 72.555 34.0239 73.4067 34.6862ZM69.8282 34.0845C69.411 34.5879 69.052 34.6215 68.5486 34.2042L67.9686 34.9039C68.2401 35.129 68.5151 35.2678 68.7878 35.3398L67.5084 36.8833L68.2081 37.4633L70.5279 34.6645L69.8282 34.0845ZM72.1622 36.6092C72.023 36.4938 71.8437 36.4385 71.6637 36.4553C71.4837 36.4722 71.3178 36.5598 71.2024 36.699C71.087 36.8382 71.0317 37.0175 71.0485 37.1975C71.0654 37.3775 71.153 37.5434 71.2922 37.6587C71.4314 37.7741 71.6107 37.8295 71.7907 37.8126C71.9707 37.7958 72.1366 37.7081 72.252 37.5689C72.3673 37.4298 72.4227 37.2505 72.4058 37.0705C72.389 36.8905 72.3013 36.7246 72.1622 36.6092ZM66.0444 33.3091C65.9052 33.1937 65.7259 33.1384 65.5459 33.1552C65.366 33.172 65.2 33.2597 65.0847 33.3989C64.9693 33.5381 64.914 33.7174 64.9308 33.8973C64.9477 34.0773 65.0353 34.2433 65.1745 34.3586C65.3137 34.474 65.493 34.5293 65.673 34.5125C65.8529 34.4956 66.0189 34.408 66.1342 34.2688C66.2496 34.1296 66.3049 33.9503 66.2881 33.7703C66.2713 33.5903 66.1836 33.4244 66.0444 33.3091Z" fill="#FFCC7E"/>
<path d="M80.0247 15.1192C78.8024 15.0862 77.8383 15.3659 76.8997 15.636C75.896 15.9245 74.9487 16.1964 73.6599 16.1393C72.7984 16.106 71.9444 15.9102 71.1133 15.5709L70.523 15.3303L70.1005 23.081L70.3968 23.205C71.1707 23.527 71.9686 23.7321 72.7696 23.814C72.8968 23.8268 73.0214 23.8368 73.1439 23.8435C74.511 23.918 75.5776 23.6121 76.6117 23.3171C77.7018 23.0052 78.7299 22.7103 80.1035 22.8503C80.8313 22.9276 81.5439 23.1112 82.2186 23.3952L82.8122 23.6423L83.2348 15.8885L82.9422 15.7633C82.1854 15.4401 81.3838 15.2343 80.5649 15.1532C80.3853 15.1354 80.2051 15.124 80.0247 15.1192ZM80.0001 16.0216C80.1546 16.0255 80.3125 16.0341 80.476 16.0494C80.6453 16.0659 80.8141 16.0906 80.9823 16.1198C81.0358 16.4082 81.199 16.6647 81.4377 16.8353C81.6764 17.0059 81.9719 17.0774 82.2622 17.0346L82.0371 21.1645C81.8901 21.1261 81.7369 21.1177 81.5866 21.1397C81.4363 21.1617 81.2919 21.2137 81.1621 21.2926C81.0323 21.3715 80.9196 21.4757 80.8308 21.5989C80.7421 21.7222 80.679 21.862 80.6453 22.0102C80.4958 21.9865 80.3458 21.9671 80.1952 21.952C78.6494 21.7994 77.4857 22.1269 76.3604 22.4497C75.2689 22.7624 74.2348 23.0579 72.8622 22.9175C72.6913 22.8992 72.5211 22.8747 72.352 22.8442C72.2978 22.5565 72.1345 22.3009 71.8961 22.1309C71.6578 21.9609 71.3629 21.8897 71.0733 21.9321L71.2984 17.8023C71.4463 17.8408 71.6004 17.8491 71.7515 17.8266C71.9027 17.804 72.0477 17.7511 72.1779 17.671C72.308 17.591 72.4207 17.4854 72.509 17.3607C72.5973 17.236 72.6594 17.0947 72.6917 16.9453C73.0007 16.9944 73.3105 17.03 73.6207 17.0419C75.0576 17.1056 76.1214 16.7991 77.151 16.503C78.0577 16.2416 78.9216 15.9965 80.0001 16.0216ZM76.7667 17.6684C76.7311 18.3214 76.4626 18.562 75.8097 18.5264L75.7603 19.4339C76.1124 19.4531 76.416 19.4009 76.6779 19.2964L76.5688 21.2983L77.4763 21.3478L77.6741 17.7179L76.7667 17.6684ZM80.1449 18.3077C79.9644 18.2978 79.7874 18.3601 79.6528 18.4808C79.5182 18.6015 79.4371 18.7707 79.4272 18.9512C79.4174 19.1317 79.4796 19.3087 79.6003 19.4433C79.721 19.5779 79.8902 19.659 80.0707 19.6689C80.2512 19.6787 80.4282 19.6164 80.5628 19.4957C80.6974 19.3751 80.7786 19.2059 80.7884 19.0254C80.7983 18.8449 80.736 18.6678 80.6153 18.5332C80.4946 18.3986 80.3254 18.3175 80.1449 18.3077ZM73.2647 19.2979C73.0842 19.2881 72.9072 19.3503 72.7726 19.471C72.638 19.5917 72.5569 19.7609 72.547 19.9414C72.5372 20.1219 72.5995 20.2989 72.7201 20.4335C72.8408 20.5681 73.01 20.6492 73.1905 20.6591C73.371 20.6689 73.5481 20.6067 73.6827 20.486C73.8173 20.3653 73.8984 20.1961 73.9082 20.0156C73.9181 19.8351 73.8558 19.6581 73.7351 19.5235C73.6144 19.3889 73.4452 19.3077 73.2647 19.2979Z" fill="#FFCC7E"/>
<path d="M97.3234 33.1543C96.1064 33.2726 95.1842 33.6692 94.2862 34.0532C93.3259 34.4634 92.4194 34.8503 91.1334 34.9529C90.2744 35.0263 89.4028 34.9375 88.5361 34.7035L87.9206 34.5377L88.4589 42.2811L88.7682 42.3676C89.5759 42.5916 90.3931 42.6965 91.1981 42.6788C91.3259 42.6758 91.4508 42.6703 91.5732 42.6618C92.939 42.5668 93.9596 42.1315 94.9493 41.711C95.9925 41.2668 96.9764 40.8472 98.3567 40.8164C99.0885 40.8032 99.8184 40.8973 100.523 41.0958L101.142 41.2677L100.604 33.5211L100.298 33.433C99.5072 33.2057 98.6863 33.1006 97.8636 33.1213C97.6832 33.1258 97.5031 33.1368 97.3234 33.1543ZM97.4105 34.0528C97.5643 34.0376 97.7221 34.0266 97.8862 34.0216C98.0562 34.0171 98.2268 34.0207 98.3973 34.0289C98.486 34.3085 98.6797 34.5429 98.9376 34.6827C99.1956 34.8225 99.4976 34.8569 99.7804 34.7786L100.067 38.9046C99.9166 38.8847 99.7635 38.8953 99.6171 38.9357C99.4707 38.9761 99.3339 39.0456 99.2148 39.1399C99.0957 39.2342 98.9968 39.3515 98.9239 39.4848C98.851 39.6181 98.8057 39.7646 98.7906 39.9158C98.6394 39.9108 98.488 39.9101 98.3368 39.9136C96.784 39.9532 95.6696 40.422 94.5928 40.8813C93.5483 41.3265 92.5586 41.7474 91.1792 41.7777C91.0074 41.7807 90.8354 41.7774 90.6638 41.768C90.5745 41.4892 90.3809 41.2557 90.1234 41.1165C89.8659 40.9772 89.5645 40.943 89.2823 41.0209L88.9954 36.8949C89.1469 36.9149 89.3009 36.904 89.4481 36.863C89.5953 36.8219 89.7327 36.7515 89.852 36.656C89.9712 36.5605 90.07 36.4418 90.1422 36.3071C90.2144 36.1724 90.2586 36.0245 90.2722 35.8723C90.5849 35.8829 90.8967 35.8799 91.206 35.8534C92.6397 35.7392 93.6576 35.3035 94.6427 34.8825C95.5101 34.5111 96.3371 34.1612 97.4105 34.0528ZM94.4053 36.0865C94.4506 36.7388 94.214 37.0108 93.5617 37.0562L93.6247 37.9628C93.9765 37.9383 94.2713 37.849 94.5183 37.713L94.6574 39.713L95.564 39.65L95.3119 36.0235L94.4053 36.0865ZM97.8366 36.3035C97.6563 36.316 97.4883 36.3997 97.3697 36.536C97.251 36.6724 97.1914 36.8504 97.2039 37.0307C97.2165 37.211 97.3001 37.379 97.4365 37.4977C97.5729 37.6163 97.7508 37.6759 97.9312 37.6634C98.1115 37.6509 98.2795 37.5672 98.3981 37.4308C98.5168 37.2944 98.5764 37.1165 98.5639 36.9362C98.5513 36.7558 98.4677 36.5878 98.3313 36.4692C98.1949 36.3505 98.017 36.2909 97.8366 36.3035ZM91.1315 38.1361C90.9511 38.1486 90.7832 38.2323 90.6645 38.3687C90.5459 38.5051 90.4862 38.683 90.4988 38.8633C90.5113 39.0437 90.595 39.2116 90.7314 39.3303C90.8678 39.449 91.0457 39.5086 91.226 39.496C91.4064 39.4835 91.5743 39.3998 91.693 39.2635C91.8116 39.1271 91.8713 38.9491 91.8587 38.7688C91.8462 38.5885 91.7625 38.4205 91.6261 38.3018C91.4898 38.1832 91.3118 38.1236 91.1315 38.1361Z" fill="#FFCC7E"/>
<path d="M78.0625 48.9288C77.0057 48.9584 76.1866 49.2504 75.3891 49.5327C74.5362 49.8343 73.7313 50.1187 72.6159 50.1303C71.8707 50.1423 71.1243 50.0111 70.3908 49.7527L69.8699 49.5695V56.4019L70.1315 56.4967C70.8147 56.7427 71.5132 56.8847 72.2086 56.9183C72.3189 56.9235 72.427 56.9263 72.5331 56.9263C73.7167 56.9263 74.6231 56.6063 75.5019 56.2975C76.4282 55.9711 77.3019 55.6628 78.4943 55.7199C79.1263 55.753 79.7501 55.8802 80.3458 56.0975L80.8699 56.2863V49.4512L80.6114 49.3552C79.9429 49.1073 79.2411 48.9649 78.5304 48.9328C78.3745 48.9257 78.2185 48.9244 78.0625 48.9288ZM78.0837 49.7231C78.2173 49.7191 78.354 49.7191 78.4958 49.7247C78.6428 49.7311 78.7897 49.7447 78.9362 49.7623C78.996 50.0133 79.149 50.2309 79.3631 50.3694C79.5771 50.5079 79.8356 50.5566 80.0842 50.5051V54.1456C79.9555 54.119 79.8228 54.1189 79.6941 54.1455C79.5654 54.172 79.4432 54.2246 79.3349 54.3002C79.2265 54.3757 79.1342 54.4727 79.0633 54.5853C78.9925 54.6979 78.9446 54.8238 78.9225 54.9556C78.7924 54.942 78.6619 54.9321 78.5312 54.926C77.1896 54.866 76.2004 55.2096 75.2442 55.5472C74.3166 55.8743 73.4378 56.1835 72.2463 56.1259C72.0979 56.118 71.9498 56.1047 71.8023 56.0859C71.7421 55.8357 71.589 55.6188 71.3753 55.4808C71.1615 55.3428 70.9036 55.2944 70.6556 55.3456V51.705C70.7851 51.7318 70.9185 51.7317 71.0479 51.7047C71.1773 51.6776 71.3 51.6242 71.4086 51.5475C71.5173 51.4709 71.6095 51.3728 71.6799 51.2589C71.7502 51.1451 71.7972 51.0179 71.8181 50.8851C72.0872 50.9135 72.3563 50.9299 72.6246 50.9255C73.868 50.9127 74.7719 50.5923 75.6468 50.2827C76.4172 50.0095 77.1515 49.7527 78.0837 49.7231ZM75.3699 50.9255C74.5032 50.9255 73.7984 51.8226 73.7984 52.9253C73.7984 54.0281 74.5032 54.9252 75.3699 54.9252C76.2365 54.9252 76.9413 54.0281 76.9413 52.9253C76.9413 51.8226 76.2365 50.9255 75.3699 50.9255ZM75.3699 51.7254C75.7957 51.7254 76.1556 52.275 76.1556 52.9253C76.1556 53.5757 75.7957 54.1253 75.3699 54.1253C74.944 54.1253 74.5842 53.5757 74.5842 52.9253C74.5842 52.275 74.944 51.7254 75.3699 51.7254ZM78.3163 51.7254C78.16 51.7254 78.0101 51.7886 77.8996 51.9011C77.7891 52.0136 77.727 52.1662 77.727 52.3254C77.727 52.4845 77.7891 52.6371 77.8996 52.7496C78.0101 52.8621 78.16 52.9253 78.3163 52.9253C78.4726 52.9253 78.6225 52.8621 78.733 52.7496C78.8435 52.6371 78.9056 52.4845 78.9056 52.3254C78.9056 52.1662 78.8435 52.0136 78.733 51.9011C78.6225 51.7886 78.4726 51.7254 78.3163 51.7254ZM72.4234 52.9253C72.2672 52.9253 72.1173 52.9885 72.0068 53.1011C71.8962 53.2136 71.8342 53.3662 71.8342 53.5253C71.8342 53.6844 71.8962 53.837 72.0068 53.9495C72.1173 54.062 72.2672 54.1253 72.4234 54.1253C72.5797 54.1253 72.7296 54.062 72.8401 53.9495C72.9506 53.837 73.0127 53.6844 73.0127 53.5253C73.0127 53.3662 72.9506 53.2136 72.8401 53.1011C72.7296 52.9885 72.5797 52.9253 72.4234 52.9253Z" fill="#FFCC7E"/>
<path d="M48.7888 34.4326C47.9123 35.0237 47.3771 35.7091 46.8551 36.3748C46.2965 37.0864 45.7692 37.7578 44.8336 38.3652C44.2108 38.7746 43.5103 39.0638 42.7525 39.2386L42.2145 39.363L45.8751 45.132L46.1468 45.0718C46.8555 44.9135 47.5213 44.6592 48.1265 44.315C48.2225 44.2602 48.3152 44.2047 48.4047 44.1479C49.4042 43.5137 49.998 42.7579 50.5746 42.0264C51.1819 41.2545 51.7545 40.526 52.7919 39.9354C53.3432 39.6247 53.9381 39.3979 54.5575 39.2622L55.1012 39.1409L51.4391 33.3695L51.1694 33.427C50.4721 33.5758 49.8033 33.8315 49.186 34.1853C49.0506 34.2628 48.9181 34.3453 48.7888 34.4326ZM49.2323 35.0919C49.3429 35.017 49.4584 34.9437 49.5811 34.8725C49.7086 34.7991 49.8399 34.7319 49.9731 34.6683C50.158 34.8481 50.4038 34.9499 50.6588 34.9522C50.9137 34.9544 51.158 34.857 51.3403 34.6804L53.2908 37.7543C53.1679 37.8008 53.0558 37.8718 52.9614 37.9632C52.8669 38.0545 52.792 38.1644 52.7409 38.2863C52.6899 38.4081 52.6639 38.5394 52.6644 38.6725C52.6649 38.8055 52.6919 38.9375 52.7439 39.0606C52.6267 39.1188 52.5113 39.1804 52.3977 39.2453C51.2327 39.9134 50.5815 40.7335 49.955 41.5309C49.3471 42.3041 48.7707 43.036 47.7338 43.6257C47.6042 43.6986 47.4721 43.7666 47.3375 43.8298C47.1525 43.6508 46.9071 43.5497 46.6527 43.5477C46.3983 43.5457 46.1546 43.6429 45.9726 43.8191L44.0221 40.7451C44.1458 40.6984 44.2584 40.6268 44.3532 40.5346C44.4479 40.4424 44.5229 40.3316 44.5736 40.2087C44.6242 40.0858 44.6495 39.9535 44.6479 39.8197C44.6463 39.6858 44.6179 39.5533 44.5643 39.43C44.8067 39.3098 45.0428 39.1794 45.267 39.032C46.31 38.355 46.9016 37.6001 47.4745 36.87C47.9786 36.2266 48.461 35.6164 49.2323 35.0919ZM47.585 37.5611C46.8532 38.0254 46.7388 39.1606 47.3296 40.0917C47.9204 41.0228 48.9962 41.4027 49.7279 40.9383C50.4597 40.474 50.5741 39.3389 49.9833 38.4078C49.3925 37.4767 48.3167 37.0968 47.585 37.5611ZM48.0136 38.2366C48.3731 38.0084 48.9714 38.2796 49.3199 38.8288C49.6683 39.3779 49.6589 40.0347 49.2993 40.2629C48.9398 40.4911 48.3415 40.2198 47.993 39.6707C47.6446 39.1216 47.654 38.4647 48.0136 38.2366ZM50.5014 36.6579C50.3695 36.7417 50.2768 36.8754 50.2437 37.0296C50.2107 37.1838 50.24 37.3459 50.3253 37.4803C50.4105 37.6146 50.5447 37.7102 50.6983 37.746C50.8519 37.7818 51.0123 37.7549 51.1443 37.6711C51.2763 37.5874 51.369 37.4537 51.402 37.2995C51.435 37.1453 51.4057 36.9832 51.3204 36.8488C51.2352 36.7145 51.101 36.6189 50.9474 36.5831C50.7938 36.5473 50.6334 36.5742 50.5014 36.6579ZM46.1686 40.8283C46.0366 40.9121 45.9439 41.0458 45.9109 41.2C45.8779 41.3542 45.9072 41.5163 45.9925 41.6507C46.0777 41.785 46.2119 41.8806 46.3655 41.9164C46.5191 41.9522 46.6795 41.9253 46.8115 41.8415C46.9434 41.7578 47.0361 41.6241 47.0692 41.4699C47.1022 41.3157 47.0729 41.1536 46.9876 41.0192C46.9024 40.8849 46.7682 40.7893 46.6146 40.7535C46.461 40.7177 46.3006 40.7446 46.1686 40.8283Z" fill="#FFCC7E"/>
<path d="M58.1105 19.3019C56.864 18.523 55.6946 18.2254 54.5576 17.9336C53.3418 17.621 52.1946 17.3256 50.8939 16.4813C50.0215 15.9219 49.2559 15.1988 48.6014 14.3409L48.1363 13.7319L42.9766 21.5057L43.2081 21.8147C43.8138 22.6198 44.5157 23.3184 45.2958 23.8913C45.4198 23.9821 45.5428 24.0684 45.6657 24.1499C47.0368 25.06 48.3284 25.3928 49.5796 25.7171C50.8991 26.058 52.1441 26.3789 53.4821 27.3607C54.1892 27.8842 54.8158 28.5086 55.3418 29.2139L55.8063 29.8316L60.9681 22.0547L60.7411 21.7467C60.1539 20.9507 59.4486 20.2491 58.6495 19.6661C58.4743 19.5383 58.2945 19.4168 58.1105 19.3019ZM57.5352 20.222C57.693 20.3201 57.8513 20.4252 58.0114 20.5406C58.1768 20.6609 58.3367 20.7893 58.4932 20.922C58.3729 21.2535 58.3858 21.6187 58.5291 21.9409C58.6725 22.2631 58.9352 22.5172 59.262 22.6497L56.5127 26.7919C56.3838 26.6626 56.2302 26.5605 56.061 26.4918C55.8919 26.423 55.7106 26.3889 55.528 26.3916C55.3455 26.3942 55.1653 26.4335 54.9982 26.5072C54.8311 26.5808 54.6805 26.6873 54.5554 26.8203C54.4149 26.7047 54.2712 26.5932 54.1245 26.4858C52.6157 25.386 51.2103 25.0163 49.8477 24.6652C48.5261 24.3243 47.2746 24.0004 45.9379 23.0188C45.7719 22.8957 45.6105 22.7667 45.4538 22.632C45.573 22.3009 45.5595 21.9365 45.4161 21.6151C45.2727 21.2938 45.0105 21.0404 44.6845 20.9079L47.4338 16.7657C47.5635 16.8958 47.7182 16.9982 47.8886 17.067C48.0589 17.1357 48.2414 17.1692 48.4251 17.1656C48.6087 17.1619 48.7897 17.1211 48.9572 17.0457C49.1247 16.9702 49.2752 16.8617 49.3996 16.7266C49.6899 16.9658 49.9892 17.1913 50.3034 17.3926C51.7534 18.3341 53.0425 18.6646 54.2898 18.985C55.3885 19.2665 56.4329 19.5389 57.5352 20.222ZM53.4835 19.5034C52.4796 18.8371 50.9857 19.3159 50.1529 20.5706C49.3202 21.8253 49.4591 23.3879 50.463 24.0542C51.4669 24.7206 52.9608 24.2417 53.7936 22.987C54.6264 21.7323 54.4874 20.1697 53.4835 19.5034ZM52.8794 20.4135C53.3727 20.741 53.3746 21.6429 52.8834 22.3829C52.3923 23.1229 51.5604 23.4715 51.0671 23.1441C50.5738 22.8166 50.572 21.9147 51.0631 21.1747C51.5542 20.4347 52.3861 20.0861 52.8794 20.4135ZM56.2926 22.6789C56.1115 22.5588 55.8901 22.5155 55.6772 22.5585C55.4642 22.6015 55.277 22.7274 55.1568 22.9085C55.0367 23.0895 54.9934 23.3109 55.0364 23.5239C55.0795 23.7369 55.2054 23.924 55.3864 24.0442C55.5674 24.1644 55.7888 24.2077 56.0018 24.1646C56.2148 24.1216 56.4019 23.9957 56.5221 23.8146C56.6423 23.6336 56.6856 23.4122 56.6425 23.1992C56.5995 22.9863 56.4736 22.7991 56.2926 22.6789ZM48.5601 19.5134C48.3791 19.3933 48.1577 19.3499 47.9447 19.393C47.7317 19.436 47.5446 19.5619 47.4244 19.743C47.3043 19.924 47.2609 20.1454 47.304 20.3584C47.347 20.5713 47.4729 20.7585 47.654 20.8787C47.835 20.9988 48.0564 21.0422 48.2694 20.9991C48.4823 20.9561 48.6695 20.8302 48.7897 20.6491C48.9098 20.4681 48.9532 20.2467 48.9101 20.0337C48.8671 19.8207 48.7412 19.6336 48.5601 19.5134Z" fill="#FFCC7E"/>
<path d="M95.9585 58.3114C95.1389 58.1632 94.4435 58.3222 93.7669 58.475C93.0435 58.6381 92.3607 58.7918 91.5 58.6154C90.924 58.5018 90.3791 58.2423 89.8725 57.8555L89.5126 57.5811L87.987 64.5362L88.1671 64.6768C88.6378 65.0425 89.1434 65.3049 89.6709 65.4565C89.7547 65.4804 89.8372 65.5015 89.9188 65.5194C90.8294 65.7191 91.5981 65.5464 92.3432 65.3803C93.1287 65.2044 93.8697 65.0379 94.7743 65.2974C95.2531 65.4377 95.7046 65.6725 96.1144 65.9942L96.4754 66.2748L98.0017 59.3169L97.8242 59.1756C97.3653 58.8104 96.8572 58.547 96.3176 58.3944C96.1993 58.3609 96.0795 58.3333 95.9585 58.3114ZM95.7975 59.1236C95.9011 59.1421 96.0063 59.1651 96.1142 59.1948C96.2258 59.2261 96.3358 59.2647 96.4446 59.3074C96.4345 59.5729 96.5036 59.8202 96.6374 59.9974C96.7712 60.1745 96.9592 60.2676 97.1619 60.2572L96.3489 63.9631C96.2559 63.9143 96.1539 63.8918 96.0489 63.8971C95.9439 63.9024 95.8382 63.9353 95.738 63.994C95.6377 64.0526 95.5451 64.1357 95.4654 64.2383C95.3858 64.341 95.3208 64.4611 95.2744 64.5916C95.1773 64.5557 95.0791 64.5237 94.98 64.4954C93.9612 64.2079 93.1235 64.3907 92.3124 64.573C91.5258 64.7495 90.7807 64.916 89.8768 64.6563C89.7644 64.6232 89.6535 64.5846 89.5442 64.5406C89.5537 64.2757 89.4844 64.0291 89.3508 63.8526C89.2172 63.6761 89.0296 63.5832 88.8273 63.5935L89.6402 59.8875C89.7339 59.9367 89.8366 59.9591 89.9422 59.9534C90.0478 59.9476 90.1541 59.914 90.2548 59.8543C90.3554 59.7947 90.4483 59.7103 90.5279 59.6063C90.6074 59.5022 90.672 59.3807 90.7177 59.249C90.9183 59.3233 91.1217 59.3854 91.3291 59.4262C92.2886 59.623 93.0555 59.4495 93.7978 59.282C94.4514 59.1339 95.0737 58.9964 95.7975 59.1236ZM93.4412 59.8895C92.7744 59.7433 92.0319 60.5376 91.7856 61.6601C91.5394 62.7827 91.8813 63.8148 92.548 63.9611C93.2148 64.1074 93.9573 63.313 94.2035 62.1905C94.4498 61.068 94.1079 60.0358 93.4412 59.8895ZM93.2625 60.7038C93.5902 60.7757 93.7443 61.3959 93.5991 62.0579C93.4538 62.7199 93.0543 63.2187 92.7267 63.1468C92.399 63.0749 92.2449 62.4548 92.3901 61.7927C92.5353 61.1307 92.9349 60.632 93.2625 60.7038ZM95.5293 61.2011C95.4091 61.1747 95.2796 61.2137 95.1695 61.3096C95.0594 61.4055 94.9775 61.5504 94.942 61.7124C94.9065 61.8743 94.9201 62.0402 94.98 62.1733C95.0399 62.3065 95.1411 62.3962 95.2614 62.4225C95.3816 62.4489 95.511 62.4099 95.6212 62.314C95.7313 62.2181 95.8132 62.0732 95.8487 61.9112C95.8842 61.7493 95.8705 61.5835 95.8106 61.4503C95.7507 61.3171 95.6495 61.2274 95.5293 61.2011ZM90.7278 61.4281C90.6076 61.4017 90.4782 61.4408 90.368 61.5366C90.2579 61.6325 90.176 61.7774 90.1405 61.9394C90.105 62.1014 90.1187 62.2672 90.1786 62.4004C90.2384 62.5335 90.3396 62.6232 90.4599 62.6496C90.5801 62.6759 90.7095 62.6369 90.8197 62.541C90.9298 62.4451 91.0117 62.3002 91.0472 62.1383C91.0827 61.9763 91.069 61.8105 91.0092 61.6773C90.9493 61.5441 90.8481 61.4545 90.7278 61.4281Z" fill="#FFCC7E"/>
</g>
<defs>
<clipPath id="clip0">
<rect width="1440" height="8384" fill="white" transform="translate(-465 -6734)"/>
</clipPath>
</defs>
</svg>
