<svg width="118" height="93" viewBox="0 0 118 93" fill="none" xmlns="http://www.w3.org/2000/svg">
<path d="M73.4239 22.1358L73.5585 26.6743C73.5585 26.6743 68.2445 25.3471 64.7172 24.6746C63.2876 24.3932 61.9184 25.635 59.8673 25.2752C56.3554 24.6805 54.9911 21.6792 57.6026 21.4025C60.6492 21.0796 63.7128 19.6222 65.1735 19.857C67.5665 20.3105 73.4239 22.1358 73.4239 22.1358Z" fill="#FFCC7E"/>
<path d="M76.8136 20.8963C78.4602 21.6597 80.6186 23.3719 82.449 26.4825C82.449 26.4825 77.5059 27.0208 75.797 26.3505C75.797 26.3505 69.7544 23.3904 65.6842 21.8159C64.0219 21.1767 62.0622 22.2935 59.732 21.3427C55.6928 19.7217 54.7181 15.8349 57.9662 16.1185C61.7115 16.4647 65.7225 15.5057 67.3848 16.1449C70.2278 17.2362 74.4836 19.7434 76.8136 20.8963Z" fill="#FFCC7E"/>
<path d="M71.4026 22.9412C71.4026 22.9412 69.1503 21.7729 65.08 20.1984C63.4177 19.5592 61.458 20.676 59.1278 19.7252C57.7296 19.1952 56.6737 18.3546 56.0996 17.4991C56.1759 18.696 57.4173 20.4693 59.7475 21.4201C62.0778 22.3708 64.0685 21.2075 65.6997 21.8932C67.4552 22.5947 69.2261 23.3738 69.2261 23.3738L66.7839 25.1118L71.4026 22.9412Z" fill="#EBA352"/>
<path d="M75.5071 21.6404C70.6565 22.847 66.6283 25.1427 64.0621 26.6628C60.2205 28.8809 63.0485 29.4904 60.7716 36.1243C60.4598 36.9944 60.4272 38.2533 62.2921 38.4886C64.0791 38.7393 66.604 32.7429 66.3724 31.3749C66.3724 31.3749 70.616 30.9757 72.0174 28.677C72.0174 28.677 73.5854 30.2642 74.8131 30.3433C74.8131 30.3433 74.3264 34.6014 74.8677 36.9178L69.8607 38.9636C65.8068 36.6586 64.1749 36.579 63.0846 38.6138C62.0877 40.5088 63.8895 41.4435 65.2718 42.2999C67.7723 43.9037 67.7556 44.8362 69.1389 44.8844C74.3919 45.0925 78.6832 43.7142 82.2953 38.3097C83.6343 36.3063 84.4596 34.9706 84.6947 33.3078C84.9932 30.5416 80.9018 20.3255 75.5071 21.6404Z" fill="#FFCC7E"/>
<path d="M76.6573 21.5328C80.9767 22.7346 84.0293 30.7736 83.7001 33.1822C83.465 34.845 82.6709 36.1341 81.3008 38.1841C77.7198 43.5421 73.5062 44.905 68.2997 44.728C68.5172 44.8059 68.8125 44.8684 69.0611 44.8998C74.3919 45.0925 78.6832 43.7142 82.2953 38.3096C83.6343 36.3062 84.4596 34.9705 84.6947 33.3077C84.9929 30.7436 81.5063 21.7405 76.6573 21.5328Z" fill="#EBA352"/>
<path d="M69.4867 39.7248C69.4867 39.7248 74.0585 37.7251 74.7588 36.9799L69.8295 39.0103C66.0092 36.2548 64.0039 36.5323 63.0534 38.6605C63.0065 38.8314 62.9131 38.9712 62.8663 39.1421C63.91 37.0761 65.7596 37.0317 69.4867 39.7248Z" fill="#EBA352"/>
<path d="M66.3722 31.3751C66.3722 31.3751 70.5692 30.9447 72.0173 28.6772L71.5048 28.3347C70.0567 30.6022 65.8597 31.0325 65.8597 31.0325C66.1379 32.4317 63.6131 38.4281 61.7794 38.1462C61.4842 38.0837 61.1889 38.0212 60.9714 37.9432C61.2198 38.1767 61.6237 38.3792 62.2919 38.4888C64.079 38.7395 66.6038 32.7431 66.3722 31.3751Z" fill="#EBA352"/>
<path d="M30 77.3998H61V69.6498C60.9967 66.7732 59.8526 64.0154 57.8185 61.9813C55.7845 59.9473 53.0266 58.8031 50.15 58.7998H40.85C37.9734 58.8031 35.2156 59.9473 33.1815 61.9813C31.1475 64.0154 30.0033 66.7732 30 69.6498V77.3998Z" fill="#FFCC7E"/>
<path d="M34.65 44.85C34.65 46.9959 35.2864 49.0937 36.4786 50.878C37.6708 52.6622 39.3653 54.0529 41.3479 54.8741C43.3305 55.6953 45.5121 55.9102 47.6168 55.4915C49.7215 55.0729 51.6547 54.0395 53.1721 52.5221C54.6896 51.0047 55.7229 49.0714 56.1416 46.9667C56.5602 44.862 56.3454 42.6805 55.5241 40.6979C54.7029 38.7153 53.3123 37.0208 51.528 35.8286C49.7437 34.6363 47.646 34 45.5 34C42.6224 34 39.8627 35.1431 37.8279 37.1779C35.7931 39.2127 34.65 41.9724 34.65 44.85Z" fill="#FFCC7E"/>
</svg>
