<svg width="28" height="28" viewBox="0 0 28 28" fill="none" xmlns="http://www.w3.org/2000/svg">
<path d="M15.3279 21.2687C15.1956 21.4 15.1304 21.5871 15.1466 21.7889C15.1629 21.9907 15.2592 22.1906 15.4144 22.3446C15.5697 22.4987 15.7711 22.5943 15.9744 22.6104C16.1777 22.6265 16.3662 22.5618 16.4985 22.4305L22.5188 16.4557C22.5843 16.3907 22.634 16.3113 22.6651 16.222C22.6962 16.1328 22.7081 16.0354 22.7001 15.9355C22.692 15.8356 22.6642 15.7351 22.6183 15.6398C22.5723 15.5444 22.5091 15.4561 22.4323 15.3798C22.3554 15.3035 22.2664 15.2408 22.1703 15.1952C22.0742 15.1496 21.973 15.122 21.8723 15.114C21.7716 15.106 21.6735 15.1178 21.5836 15.1487C21.4937 15.1795 21.4137 15.2289 21.3482 15.2939L15.3279 21.2687Z" fill="#EFEFEF"/>
<path d="M6.29979 22.5855C5.89543 22.1842 5.93342 21.4971 6.38291 21.051L21.1285 6.41665C21.3446 6.20222 21.6289 6.07307 21.9189 6.05759C22.2088 6.04212 22.4807 6.1416 22.6747 6.33415C22.8687 6.5267 22.969 6.79654 22.9534 7.08431C22.9378 7.37209 22.8077 7.65422 22.5916 7.86865L7.84596 22.503C7.39565 22.9499 6.70341 22.986 6.29979 22.5855Z" fill="#EFEFEF"/>
<path d="M6.3092 13.3075C5.85624 12.858 5.80275 12.1836 6.18802 11.8012L11.8093 6.22239C11.9945 6.03859 12.2584 5.94801 12.5431 5.97056C12.8277 5.99311 13.1097 6.12696 13.327 6.34265C13.5444 6.55834 13.6792 6.83821 13.702 7.12069C13.7247 7.40317 13.6334 7.66512 13.4482 7.84892L7.82693 13.4278C7.44095 13.8108 6.76217 13.757 6.3092 13.3075Z" fill="#EFEFEF"/>
</svg>
