<svg width="191" height="115" viewBox="0 0 191 115" fill="none" xmlns="http://www.w3.org/2000/svg">
<g clip-path="url(#clip0)">
<rect width="1440" height="8384" transform="translate(-1041 -6737)" fill="#141413"/>
<path d="M140.33 83.9375H138.93V74.4365C138.93 73.3203 138.484 72.248 137.696 71.457L128.955 62.6768C128.167 61.8857 127.1 61.4375 125.989 61.4375H122.13V57.2188C122.13 54.8896 120.249 53 117.93 53H95.53C93.2112 53 91.33 54.8896 91.33 57.2188V61.4375H86.43C86.045 61.4375 85.73 61.7539 85.73 62.1406V63.5469C85.73 63.9336 86.045 64.25 86.43 64.25H110.23C110.615 64.25 110.93 64.5664 110.93 64.9531V66.3594C110.93 66.7461 110.615 67.0625 110.23 67.0625H89.23C88.845 67.0625 88.53 67.3789 88.53 67.7656V69.1719C88.53 69.5586 88.845 69.875 89.23 69.875H107.43C107.815 69.875 108.13 70.1914 108.13 70.5781V71.9844C108.13 72.3711 107.815 72.6875 107.43 72.6875H86.43C86.045 72.6875 85.73 73.0039 85.73 73.3906V74.7969C85.73 75.1836 86.045 75.5 86.43 75.5H104.63C105.015 75.5 105.33 75.8164 105.33 76.2031V77.6094C105.33 77.9961 105.015 78.3125 104.63 78.3125H91.33V89.5625C91.33 94.2207 95.0925 98 99.73 98C104.367 98 108.13 94.2207 108.13 89.5625H119.33C119.33 94.2207 123.092 98 127.73 98C132.367 98 136.13 94.2207 136.13 89.5625H140.33C141.1 89.5625 141.73 88.9297 141.73 88.1562V85.3438C141.73 84.5703 141.1 83.9375 140.33 83.9375ZM99.73 93.7812C97.4112 93.7812 95.53 91.8916 95.53 89.5625C95.53 87.2334 97.4112 85.3438 99.73 85.3438C102.049 85.3438 103.93 87.2334 103.93 89.5625C103.93 91.8916 102.049 93.7812 99.73 93.7812ZM127.73 93.7812C125.411 93.7812 123.53 91.8916 123.53 89.5625C123.53 87.2334 125.411 85.3438 127.73 85.3438C130.049 85.3438 131.93 87.2334 131.93 89.5625C131.93 91.8916 130.049 93.7812 127.73 93.7812ZM134.73 75.5H122.13V65.6562H125.989L134.73 74.4365V75.5Z" fill="#FFCC7E"/>
<path d="M32.6353 61.9C34.4153 61.9 35.0753 62.75 35.1353 64H37.3453C37.2753 62.28 36.2253 60.7 34.1353 60.19V58H31.1353V60.16C30.7453 60.24 30.3853 60.37 30.0353 60.52L31.5453 62.03C31.8653 61.95 32.2353 61.9 32.6353 61.9ZM25.6053 58.92L24.1953 60.33L27.6353 63.77C27.6353 65.85 29.1953 66.99 31.5453 67.68L35.0553 71.19C34.7153 71.68 34.0053 72.1 32.6353 72.1C30.5753 72.1 29.7653 71.18 29.6553 70H27.4553C27.5753 72.19 29.2153 73.42 31.1353 73.83V76H34.1353V73.85C35.0953 73.67 35.9653 73.3 36.5953 72.73L38.8153 74.95L40.2253 73.54L25.6053 58.92Z" fill="#FFCC7E"/>
<path d="M64.4908 66.6139C66.1217 65.9008 67.067 66.4152 67.6228 67.5365L69.6476 66.6511C68.8944 65.1032 67.2994 64.0762 65.1801 64.4462L64.3028 62.4397L61.554 63.6415L62.4194 65.6206C62.0941 65.8502 61.8163 66.1135 61.5557 66.3912L63.5442 67.1697C63.8054 66.9682 64.1243 66.7742 64.4908 66.6139ZM56.8558 66.6999L56.1288 68.5567L60.6588 70.3304C61.4921 72.2362 63.3781 72.6558 65.8077 72.3465L70.4299 74.1563C70.3147 74.7415 69.8325 75.4108 68.5772 75.9596C66.6898 76.7849 65.579 76.2665 65.0055 75.2294L62.9898 76.1107C63.9771 78.0692 65.9725 78.5392 67.8959 78.1456L68.7653 80.1339L71.514 78.932L70.6527 76.9621C71.4601 76.4126 72.109 75.725 72.4579 74.9504L75.3814 76.095L76.1084 74.2383L56.8558 66.6999Z" fill="#FFCC7E"/>
<path d="M55.5128 83.2594C56.918 84.352 56.9174 85.4281 56.1975 86.4518L57.9422 87.8083C58.9426 86.4075 59.0835 84.5156 57.7466 82.8301L59.0908 81.1012L56.7225 79.2598L55.3967 80.965C55.0397 80.7888 54.6757 80.6705 54.3073 80.5741L54.5725 82.693C54.8742 82.8263 55.197 83.0139 55.5128 83.2594ZM51.7921 76.5918L49.8135 76.8394L50.4177 81.6667C49.141 83.3087 49.6728 85.1662 51.1045 87.1534L51.721 92.0789C51.1519 92.257 50.3335 92.1528 49.252 91.3119C47.6257 90.0474 47.551 88.8239 48.1884 87.8249L46.4516 86.4745C45.2021 88.2771 45.7418 90.2547 47.0059 91.7569L45.674 93.47L48.0423 95.3115L49.362 93.6141C50.2304 94.0613 51.1443 94.3032 51.9915 94.2399L52.3815 97.3551L54.3601 97.1075L51.7921 76.5918Z" fill="#FFCC7E"/>
</g>
<defs>
<clipPath id="clip0">
<rect width="1440" height="8384" fill="white" transform="translate(-1041 -6737)"/>
</clipPath>
</defs>
</svg>
