<svg width="121" height="98" viewBox="0 0 121 98" fill="none" xmlns="http://www.w3.org/2000/svg">
<path fill-rule="evenodd" clip-rule="evenodd" d="M40.3039 34.6867C43.6548 33.8 47.2114 33 49.3415 33C51.4683 33 55.0281 33.8 58.379 34.6867C61.3679 35.4892 64.3373 36.3622 67.2849 37.3051C68.9812 37.8449 70.2599 39.3067 70.5073 41.1091C72.3482 54.5931 68.0784 64.5849 62.9026 71.1968C60.697 74.0343 58.0784 76.5252 55.1341 78.5862C54.1103 79.3033 53.0281 79.9331 51.8988 80.4689C51.0314 80.8672 50.1061 81.1917 49.3415 81.1917C48.5768 81.1917 47.6515 80.8672 46.7841 80.4689C45.6546 79.9335 44.5723 79.3037 43.5488 78.5862C40.6057 76.5249 37.9882 74.0341 35.7835 71.1968C30.6013 64.5849 26.3347 54.5931 28.1757 41.1091C28.2987 40.2354 28.6667 39.4145 29.237 38.7413C29.8073 38.0681 30.5565 37.5702 31.3981 37.3051C34.3456 36.3623 37.3151 35.4892 40.3039 34.6867ZM50.996 56.8035C52.0554 56.4159 52.9451 55.669 53.5104 54.6929C54.0757 53.7167 54.2807 52.5732 54.0896 51.4615C53.8985 50.3498 53.3236 49.3404 52.4648 48.609C51.6061 47.8776 50.518 47.4706 49.3901 47.4589C48.2621 47.4472 47.1658 47.8315 46.2921 48.5449C45.4184 49.2583 44.8226 50.2556 44.6085 51.3631C44.3944 52.4706 44.5756 53.6181 45.1205 54.6058C45.6654 55.5934 46.5395 56.3587 47.5905 56.7682C47.5227 56.9063 47.4751 57.0534 47.4491 57.2051L46.3793 63.6307C46.341 63.8607 46.3533 64.0963 46.4153 64.3211C46.4773 64.5459 46.5875 64.7545 46.7382 64.9324C46.8889 65.1103 47.0765 65.2533 47.2881 65.3514C47.4996 65.4495 47.73 65.5004 47.9632 65.5005H50.6459C50.88 65.5006 51.1113 65.4496 51.3237 65.3509C51.536 65.2522 51.7242 65.1083 51.8751 64.9293C52.026 64.7503 52.1359 64.5404 52.1972 64.3144C52.2584 64.0884 52.2696 63.8518 52.2298 63.621L51.1149 57.1955C51.0922 57.0603 51.0522 56.9286 50.996 56.8035Z" fill="#FFCC7E"/>
<path d="M86.4386 41.2048L76.6338 41.3118C75.9579 41.3192 75.4131 41.7722 75.4191 42.3219L75.4844 48.3018C75.4904 48.8515 76.0449 49.2925 76.7209 49.2851L86.5257 49.178C87.2016 49.1706 87.7464 48.7176 87.7404 48.168L87.6751 42.188C87.6691 41.6384 87.1146 41.1974 86.4386 41.2048ZM81.9079 47.2349C81.5016 47.2393 81.1105 47.1123 80.8206 46.8818C80.5308 46.6513 80.3659 46.3362 80.3623 46.0058C80.3587 45.6754 80.5166 45.3567 80.8014 45.12C81.0862 44.8832 81.4744 44.7477 81.8807 44.7432C82.2133 44.7402 82.5373 44.8264 82.8027 44.9884C82.435 45.2196 82.1963 45.5796 82.2007 45.9857C82.2051 46.3919 82.4517 46.7465 82.8243 46.9697C82.5625 47.1374 82.2405 47.2306 81.9079 47.2349ZM84.3591 47.2081C83.9528 47.2126 83.5617 47.0856 83.2718 46.8551C82.982 46.6246 82.8171 46.3094 82.8135 45.979C82.8099 45.6486 82.9679 45.33 83.2526 45.0932C83.5374 44.8564 83.9256 44.7209 84.3319 44.7165C84.7382 44.712 85.1293 44.839 85.4192 45.0695C85.7091 45.3 85.8739 45.6152 85.8775 45.9456C85.8811 46.276 85.7232 46.5946 85.4384 46.8314C85.1537 47.0682 84.7654 47.2037 84.3591 47.2081Z" fill="#FFCC7E"/>
<path d="M87.9439 59.4912H75.8725C75.6157 59.4912 75.4082 59.3287 75.4082 59.1276V57.3094H88.4082V59.1276C88.4082 59.3287 88.2007 59.4912 87.9439 59.4912ZM75.4082 51.8548C75.4082 51.6537 75.6157 51.4912 75.8725 51.4912H87.9439C88.2007 51.4912 88.4082 51.6537 88.4082 51.8548V56.3094H75.4082V51.8548ZM83.8089 53.9458C83.8089 53.9958 83.8611 54.0367 83.9249 54.0367H86.3189C86.3828 54.0367 86.435 53.9958 86.435 53.9458V53.1276C86.435 53.0776 86.3828 53.0367 86.3189 53.0367H83.9249C83.8611 53.0367 83.8089 53.0776 83.8089 53.1276V53.9458Z" fill="#FFCC7E"/>
<path d="M87.3249 61.4912H76.4915C75.8934 61.4912 75.4082 61.8271 75.4082 62.2412V67.7412C75.4082 68.1553 75.8934 68.4912 76.4915 68.4912H87.3249C87.923 68.4912 88.4082 68.1553 88.4082 67.7412V62.2412C88.4082 61.8271 87.923 61.4912 87.3249 61.4912ZM87.3249 67.7412H76.4915V62.2412H87.3249V67.7412ZM80.1026 64.9912C80.8993 64.9912 81.5471 64.5428 81.5471 63.9912C81.5471 63.4396 80.8993 62.9912 80.1026 62.9912C79.3059 62.9912 78.6582 63.4396 78.6582 63.9912C78.6582 64.5428 79.3059 64.9912 80.1026 64.9912ZM78.0804 66.9912H82.1249C82.4047 66.9912 82.6304 66.8568 82.6304 66.6912V66.3912C82.6304 65.8943 81.9511 65.4912 81.1138 65.4912C80.87 65.4912 80.6917 65.6162 80.1026 65.6162C79.4955 65.6162 79.3488 65.4912 79.0915 65.4912C78.2542 65.4912 77.5749 65.8943 77.5749 66.3912V66.6912C77.5749 66.8568 77.8006 66.9912 78.0804 66.9912ZM83.5332 65.9912H86.061C86.1603 65.9912 86.2415 65.935 86.2415 65.8662V65.6162C86.2415 65.5475 86.1603 65.4912 86.061 65.4912H83.5332C83.4339 65.4912 83.3526 65.5475 83.3526 65.6162V65.8662C83.3526 65.935 83.4339 65.9912 83.5332 65.9912ZM83.5332 64.9912H86.061C86.1603 64.9912 86.2415 64.935 86.2415 64.8662V64.6162C86.2415 64.5475 86.1603 64.4912 86.061 64.4912H83.5332C83.4339 64.4912 83.3526 64.5475 83.3526 64.6162V64.8662C83.3526 64.935 83.4339 64.9912 83.5332 64.9912ZM83.5332 63.9912H86.061C86.1603 63.9912 86.2415 63.935 86.2415 63.8662V63.6162C86.2415 63.5475 86.1603 63.4912 86.061 63.4912H83.5332C83.4339 63.4912 83.3526 63.5475 83.3526 63.6162V63.8662C83.3526 63.935 83.4339 63.9912 83.5332 63.9912Z" fill="#FFCC7E"/>
</svg>
