<svg width="375" height="97" viewBox="0 0 375 97" fill="none" xmlns="http://www.w3.org/2000/svg">
<g clip-path="url(#clip0)">
<rect width="375" height="2629" transform="translate(0 -1965)" fill="#141413"/>
<line x1="17" y1="96.6" x2="357" y2="96.6" stroke="#CC8E51" stroke-opacity="0.25" stroke-width="0.8" stroke-dasharray="8 8"/>
<path d="M57.5789 24.0655L57.6351 25.9599C57.6351 25.9599 55.417 25.4059 53.9446 25.1252C53.3479 25.0078 52.7764 25.5261 51.9202 25.3759C50.4543 25.1277 49.8849 23.8749 50.9749 23.7594C52.2466 23.6247 53.5254 23.0163 54.1351 23.1143C55.134 23.3036 57.5789 24.0655 57.5789 24.0655Z" fill="#FFCC7E"/>
<path d="M58.9936 23.548C59.6809 23.8667 60.5819 24.5814 61.3459 25.8798C61.3459 25.8798 59.2826 26.1045 58.5693 25.8247C58.5693 25.8247 56.0471 24.5891 54.3481 23.9319C53.6542 23.6651 52.8363 24.1313 51.8636 23.7344C50.1776 23.0577 49.7708 21.4354 51.1265 21.5537C52.6899 21.6983 54.3641 21.298 55.058 21.5648C56.2447 22.0203 58.021 23.0668 58.9936 23.548Z" fill="#FFCC7E"/>
<path d="M56.7345 24.4016C56.7345 24.4016 55.7944 23.914 54.0954 23.2568C53.4016 22.99 52.5836 23.4561 51.6109 23.0593C51.0273 22.838 50.5866 22.4872 50.3469 22.1301C50.3788 22.6297 50.8969 23.3699 51.8696 23.7667C52.8423 24.1636 53.6733 23.678 54.3541 23.9642C55.0869 24.257 55.8261 24.5822 55.8261 24.5822L54.8067 25.3077L56.7345 24.4016Z" fill="#EBA352"/>
<path d="M58.448 23.8587C56.4233 24.3624 54.7419 25.3206 53.6707 25.9551C52.0672 26.881 53.2476 27.1354 52.2972 29.9045C52.1671 30.2676 52.1535 30.7931 52.9319 30.8913C53.6778 30.996 54.7317 28.493 54.6351 27.922C54.6351 27.922 56.4064 27.7554 56.9913 26.7959C56.9913 26.7959 57.6458 27.4584 58.1583 27.4914C58.1583 27.4914 57.9551 29.2688 58.1811 30.2357L56.0911 31.0896C54.399 30.1275 53.7178 30.0942 53.2627 30.9436C52.8466 31.7346 53.5987 32.1247 54.1757 32.4822C55.2194 33.1516 55.2124 33.5409 55.7898 33.561C57.9825 33.6479 59.7737 33.0726 61.2814 30.8166C61.8403 29.9804 62.1848 29.4229 62.2829 28.7288C62.4075 27.5742 60.6998 23.3099 58.448 23.8587Z" fill="#FFCC7E"/>
<path d="M58.9279 23.8139C60.7309 24.3156 62.005 27.6711 61.8676 28.6765C61.7695 29.3706 61.438 29.9086 60.8661 30.7643C59.3714 33.0008 57.6126 33.5697 55.4394 33.4958C55.5302 33.5283 55.6534 33.5544 55.7572 33.5675C57.9823 33.6479 59.7735 33.0726 61.2813 30.8167C61.8402 29.9805 62.1846 29.4229 62.2828 28.7289C62.4073 27.6586 60.9519 23.9006 58.9279 23.8139Z" fill="#EBA352"/>
<path d="M55.9352 31.4075C55.9352 31.4075 57.8435 30.5728 58.1358 30.2617L56.0782 31.1092C54.4836 29.9591 53.6466 30.0749 53.2498 30.9632C53.2303 31.0346 53.1913 31.0929 53.1718 31.1642C53.6074 30.3019 54.3795 30.2833 55.9352 31.4075Z" fill="#EBA352"/>
<path d="M54.6349 27.9221C54.6349 27.9221 56.3867 27.7425 56.9911 26.796L56.7772 26.6531C56.1728 27.5995 54.4209 27.7792 54.4209 27.7792C54.537 28.3632 53.4832 30.8661 52.7178 30.7485C52.5945 30.7224 52.4713 30.6963 52.3805 30.6638C52.4842 30.7612 52.6528 30.8457 52.9317 30.8915C53.6776 30.9961 54.7315 28.4932 54.6349 27.9221Z" fill="#EBA352"/>
<path d="M39.4531 47.1334H52.3928V43.8985C52.3915 42.6978 51.9139 41.5467 51.0648 40.6976C50.2158 39.8486 49.0646 39.371 47.8639 39.3696H43.982C42.7813 39.371 41.6302 39.8486 40.7811 40.6976C39.9321 41.5467 39.4545 42.6978 39.4531 43.8985V47.1334Z" fill="#FFCC7E"/>
<path d="M41.3945 33.5467C41.3945 34.4424 41.6601 35.3181 42.1578 36.0628C42.6554 36.8076 43.3627 37.3881 44.1903 37.7309C45.0178 38.0737 45.9285 38.1633 46.807 37.9886C47.6855 37.8138 48.4925 37.3825 49.1258 36.7491C49.7592 36.1158 50.1906 35.3088 50.3653 34.4303C50.54 33.5517 50.4504 32.6411 50.1076 31.8136C49.7648 30.986 49.1843 30.2787 48.4395 29.7811C47.6948 29.2834 46.8192 29.0178 45.9234 29.0178C44.7223 29.0178 43.5703 29.495 42.721 30.3443C41.8717 31.1936 41.3945 32.3456 41.3945 33.5467Z" fill="#FFCC7E"/>
<g filter="url(#filter0_i)">
<path d="M34.3067 59.6H35.4467V63.332H39.6227V59.6H40.7627V68H39.6227V64.244H35.4467V68H34.3067V59.6ZM47.6112 66.74C47.6112 66.908 47.6432 67.048 47.7072 67.16C47.7712 67.264 47.8872 67.38 48.0552 67.508L47.3472 68.132C46.9392 67.924 46.6912 67.628 46.6032 67.244C46.4112 67.516 46.1432 67.732 45.7992 67.892C45.4632 68.052 45.0752 68.132 44.6352 68.132C44.0352 68.132 43.5712 67.992 43.2432 67.712C42.9152 67.424 42.7512 67.012 42.7512 66.476C42.7512 65.924 42.9432 65.512 43.3272 65.24C43.7112 64.968 44.2392 64.796 44.9112 64.724L45.7272 64.628C46.0712 64.588 46.2952 64.528 46.3992 64.448C46.5112 64.36 46.5632 64.212 46.5552 64.004C46.5232 63.692 46.3952 63.444 46.1712 63.26C45.9552 63.076 45.6232 62.984 45.1752 62.984C44.8472 62.984 44.5672 63.04 44.3352 63.152C44.1032 63.256 43.8912 63.428 43.6992 63.668L42.9792 63.152C43.1792 62.848 43.4552 62.62 43.8072 62.468C44.1672 62.308 44.6232 62.228 45.1752 62.228C45.9832 62.228 46.5912 62.396 46.9992 62.732C47.4072 63.068 47.6112 63.556 47.6112 64.196V66.74ZM44.8872 67.352C45.3912 67.352 45.7952 67.22 46.0992 66.956C46.4112 66.692 46.5672 66.356 46.5672 65.948V65.144C46.3832 65.248 46.0992 65.316 45.7152 65.348L45.0072 65.42C44.1752 65.516 43.7592 65.856 43.7592 66.44C43.7592 66.736 43.8552 66.964 44.0472 67.124C44.2392 67.276 44.5192 67.352 44.8872 67.352ZM52.5855 62.228C53.1695 62.228 53.6215 62.396 53.9415 62.732C54.2695 63.068 54.4335 63.54 54.4335 64.148V68H53.3775V64.28C53.3775 63.896 53.2815 63.596 53.0895 63.38C52.8975 63.164 52.6335 63.056 52.2975 63.056C51.9215 63.056 51.5975 63.188 51.3255 63.452C51.0535 63.716 50.8535 64.072 50.7255 64.52V68H49.6695V63.62C49.6695 63.452 49.6375 63.316 49.5735 63.212C49.5095 63.1 49.3935 62.98 49.2255 62.852L49.9215 62.228C50.1775 62.372 50.3655 62.524 50.4855 62.684C50.6055 62.844 50.6815 63.052 50.7135 63.308C50.8975 62.972 51.1495 62.708 51.4695 62.516C51.7895 62.324 52.1615 62.228 52.5855 62.228ZM61.4063 66.74C61.4063 66.908 61.4383 67.048 61.5023 67.16C61.5663 67.264 61.6823 67.38 61.8503 67.508L61.1423 68.132C60.7663 67.932 60.5223 67.612 60.4103 67.172C60.0103 67.812 59.3823 68.132 58.5263 68.132C58.0303 68.132 57.5943 68.02 57.2183 67.796C56.8503 67.564 56.5623 67.24 56.3543 66.824C56.1543 66.408 56.0543 65.924 56.0543 65.372V64.988C56.0543 64.452 56.1503 63.976 56.3423 63.56C56.5423 63.144 56.8263 62.82 57.1943 62.588C57.5703 62.348 58.0143 62.228 58.5263 62.228C59.3423 62.228 59.9503 62.508 60.3503 63.068V60.608C60.3503 60.44 60.3183 60.304 60.2543 60.2C60.1983 60.096 60.0823 59.972 59.9063 59.828L60.6263 59.204C60.9223 59.364 61.1263 59.548 61.2383 59.756C61.3503 59.956 61.4063 60.24 61.4063 60.608V66.74ZM60.3503 64.244C60.2223 63.844 60.0263 63.548 59.7623 63.356C59.5063 63.156 59.1743 63.056 58.7663 63.056C58.2623 63.056 57.8583 63.236 57.5543 63.596C57.2583 63.956 57.1103 64.42 57.1103 64.988V65.372C57.1103 65.94 57.2583 66.404 57.5543 66.764C57.8503 67.124 58.2543 67.304 58.7663 67.304C59.1743 67.304 59.5063 67.208 59.7623 67.016C60.0263 66.816 60.2223 66.516 60.3503 66.116V64.244ZM32.2114 71.6H35.7154C36.5874 71.6 37.2434 71.812 37.6834 72.236C38.1314 72.66 38.3554 73.288 38.3554 74.12C38.3554 74.952 38.1314 75.58 37.6834 76.004C37.2434 76.428 36.5874 76.64 35.7154 76.64H33.3514V80H32.2114V71.6ZM35.6794 75.74C36.1594 75.74 36.5354 75.6 36.8074 75.32C37.0794 75.04 37.2154 74.64 37.2154 74.12C37.2154 73.6 37.0794 73.2 36.8074 72.92C36.5354 72.64 36.1594 72.5 35.6794 72.5H33.3514V75.74H35.6794ZM40.5137 73.256C40.3297 73.256 40.1697 73.192 40.0337 73.064C39.9057 72.928 39.8417 72.768 39.8417 72.584C39.8417 72.4 39.9057 72.244 40.0337 72.116C40.1697 71.98 40.3297 71.912 40.5137 71.912C40.6977 71.912 40.8537 71.98 40.9817 72.116C41.1177 72.244 41.1857 72.4 41.1857 72.584C41.1857 72.768 41.1177 72.928 40.9817 73.064C40.8537 73.192 40.6977 73.256 40.5137 73.256ZM40.7777 80.132C40.4817 79.972 40.2737 79.792 40.1537 79.592C40.0417 79.384 39.9857 79.1 39.9857 78.74V74.36H41.0417V78.74C41.0417 78.908 41.0737 79.048 41.1377 79.16C41.2017 79.264 41.3177 79.38 41.4857 79.508L40.7777 80.132ZM45.5392 80.132C44.7312 80.132 44.1112 79.948 43.6792 79.58C43.2552 79.212 43.0432 78.684 43.0432 77.996V76.364C43.0432 75.684 43.2592 75.16 43.6912 74.792C44.1312 74.416 44.7512 74.228 45.5512 74.228C46.5112 74.228 47.2272 74.536 47.6992 75.152L46.9792 75.752C46.7552 75.496 46.5392 75.316 46.3312 75.212C46.1232 75.108 45.8632 75.056 45.5512 75.056C45.0872 75.056 44.7272 75.172 44.4712 75.404C44.2232 75.628 44.0992 75.948 44.0992 76.364V77.996C44.0992 78.412 44.2232 78.736 44.4712 78.968C44.7192 79.192 45.0752 79.304 45.5392 79.304C45.8672 79.304 46.1432 79.248 46.3672 79.136C46.5992 79.024 46.8112 78.848 47.0032 78.608L47.7232 79.208C47.4912 79.52 47.1992 79.752 46.8472 79.904C46.4952 80.056 46.0592 80.132 45.5392 80.132ZM54.1759 80H53.0959L52.5799 78.044C52.4919 77.74 52.3639 77.516 52.1959 77.372C52.0359 77.228 51.7799 77.14 51.4279 77.108L50.3599 78.188V80H49.3039V72.608C49.3039 72.432 49.2719 72.292 49.2079 72.188C49.1519 72.084 49.0359 71.964 48.8599 71.828L49.5799 71.204C49.8679 71.364 50.0679 71.548 50.1799 71.756C50.2999 71.964 50.3599 72.248 50.3599 72.608V76.892L52.8559 74.36H54.1639L52.1839 76.352C52.5759 76.432 52.8839 76.604 53.1079 76.868C53.3319 77.124 53.5159 77.516 53.6599 78.044L54.1759 80ZM57.882 79.316C58.21 79.316 58.49 79.268 58.722 79.172C58.962 79.076 59.194 78.92 59.418 78.704L60.066 79.292C59.826 79.58 59.526 79.792 59.166 79.928C58.814 80.064 58.378 80.132 57.858 80.132C57.034 80.132 56.41 79.956 55.986 79.604C55.57 79.244 55.362 78.712 55.362 78.008V76.22C55.362 75.604 55.574 75.12 55.998 74.768C56.43 74.408 57.018 74.228 57.762 74.228C58.53 74.228 59.122 74.416 59.538 74.792C59.962 75.168 60.174 75.708 60.174 76.412C60.174 76.884 60.09 77.208 59.922 77.384C59.762 77.56 59.45 77.648 58.986 77.648H56.418V78.02C56.418 78.452 56.538 78.776 56.778 78.992C57.018 79.208 57.386 79.316 57.882 79.316ZM57.762 75.044C57.338 75.044 57.006 75.156 56.766 75.38C56.534 75.604 56.418 75.908 56.418 76.292V76.892H58.47C58.718 76.892 58.886 76.852 58.974 76.772C59.07 76.692 59.118 76.54 59.118 76.316C59.118 75.916 58.998 75.604 58.758 75.38C58.518 75.156 58.186 75.044 57.762 75.044ZM66.9071 78.74C66.9071 78.908 66.9391 79.048 67.0031 79.16C67.0671 79.264 67.1831 79.38 67.3511 79.508L66.6431 80.132C66.2671 79.932 66.0231 79.612 65.9111 79.172C65.5111 79.812 64.8831 80.132 64.0271 80.132C63.5311 80.132 63.0951 80.02 62.7191 79.796C62.3511 79.564 62.0631 79.24 61.8551 78.824C61.6551 78.408 61.5551 77.924 61.5551 77.372V76.988C61.5551 76.452 61.6511 75.976 61.8431 75.56C62.0431 75.144 62.3271 74.82 62.6951 74.588C63.0711 74.348 63.5151 74.228 64.0271 74.228C64.8431 74.228 65.4511 74.508 65.8511 75.068V72.608C65.8511 72.44 65.8191 72.304 65.7551 72.2C65.6991 72.096 65.5831 71.972 65.4071 71.828L66.1271 71.204C66.4231 71.364 66.6271 71.548 66.7391 71.756C66.8511 71.956 66.9071 72.24 66.9071 72.608V78.74ZM65.8511 76.244C65.7231 75.844 65.5271 75.548 65.2631 75.356C65.0071 75.156 64.6751 75.056 64.2671 75.056C63.7631 75.056 63.3591 75.236 63.0551 75.596C62.7591 75.956 62.6111 76.42 62.6111 76.988V77.372C62.6111 77.94 62.7591 78.404 63.0551 78.764C63.3511 79.124 63.7551 79.304 64.2671 79.304C64.6751 79.304 65.0071 79.208 65.2631 79.016C65.5271 78.816 65.7231 78.516 65.8511 78.116V76.244Z" fill="#E9E9E9"/>
</g>
<path d="M127.919 47.6739C128.247 47.6741 128.563 47.8047 128.795 48.0373C129.027 48.2698 129.158 48.5851 129.158 48.9138C129.158 49.2425 129.027 49.5577 128.794 49.7901C128.562 50.0225 128.247 50.1529 127.918 50.1528C127.589 50.1527 127.274 50.022 127.042 49.7895C126.809 49.557 126.679 49.2417 126.679 48.913C126.679 48.5843 126.81 48.269 127.042 48.0367C127.275 47.8043 127.59 47.6738 127.919 47.6739ZM138.657 47.6739C138.986 47.6741 139.301 47.8047 139.533 48.0373C139.766 48.2698 139.896 48.5851 139.896 48.9138C139.896 49.2425 139.765 49.5577 139.533 49.7901C139.3 50.0225 138.985 50.1529 138.656 50.1528C138.327 50.1527 138.012 50.022 137.78 49.7895C137.547 49.557 137.417 49.2417 137.417 48.913C137.417 48.5843 137.548 48.269 137.78 48.0367C138.013 47.8043 138.328 47.6738 138.657 47.6739ZM125.17 32.6049L128.331 35.7669V45.1959H139.896V46.8479H127.506C127.287 46.8479 127.076 46.7609 126.922 46.606C126.767 46.4511 126.68 46.241 126.68 46.0219V36.4508L124 33.7737L125.169 32.6049H125.17ZM136.592 33.6316C136.811 33.6316 137.021 33.7186 137.176 33.8735C137.331 34.0284 137.418 34.2385 137.418 34.4576V36.1097H139.89C140.35 36.1097 140.722 36.4863 140.722 36.9316V43.548C140.721 43.6566 140.699 43.764 140.657 43.8641C140.615 43.9643 140.554 44.0551 140.477 44.1314C140.399 44.2078 140.308 44.2681 140.207 44.309C140.106 44.35 139.999 44.3706 139.89 44.3699H129.989C129.771 44.3699 129.56 44.2836 129.405 44.1297C129.249 43.9759 129.16 43.7669 129.158 43.548V36.9316C129.158 36.8229 129.18 36.7155 129.222 36.6154C129.264 36.5153 129.326 36.4244 129.403 36.3481C129.48 36.2717 129.572 36.2114 129.673 36.1705C129.773 36.1296 129.881 36.1089 129.989 36.1097H132.461L132.462 34.4576C132.462 34.2385 132.549 34.0284 132.704 33.8735C132.859 33.7186 133.069 33.6316 133.288 33.6316H136.592ZM132.462 37.7617H131.636V42.7178H132.462V37.7617ZM138.244 37.7617H137.418V42.7178H138.244V37.7617ZM135.766 35.2836H134.114V36.1097H135.766V35.2836Z" fill="#FFCC7E"/>
<path d="M141.839 23.4863C141.449 23.1812 141.069 23.0399 140.698 22.9017C140.303 22.7537 139.929 22.6139 139.524 22.285C139.252 22.0667 139.021 21.7973 138.833 21.4869L138.699 21.2665L136.695 23.6843L136.761 23.796C136.935 24.0871 137.145 24.3459 137.386 24.5655C137.424 24.6003 137.462 24.6335 137.501 24.6652C137.927 25.0187 138.348 25.1761 138.755 25.3293C139.184 25.4904 139.589 25.6422 140.002 26.0185C140.22 26.2189 140.408 26.4502 140.559 26.7051L140.692 26.9284L142.697 24.5095L142.632 24.3984C142.464 24.111 142.253 23.851 142.006 23.6274C141.952 23.5784 141.896 23.5313 141.839 23.4863ZM141.613 23.7737C141.663 23.8122 141.712 23.853 141.761 23.8974C141.812 23.9435 141.861 23.9922 141.909 24.0422C141.857 24.1489 141.848 24.2716 141.885 24.3845C141.921 24.4974 142 24.5918 142.105 24.6479L141.037 25.9362C140.998 25.8883 140.951 25.8487 140.896 25.8196C140.842 25.7906 140.783 25.7727 140.722 25.7671C140.66 25.7615 140.599 25.7682 140.54 25.7869C140.482 25.8056 140.427 25.8359 140.381 25.8759C140.338 25.8322 140.294 25.7898 140.248 25.7486C139.783 25.3267 139.326 25.1529 138.882 24.9868C138.452 24.8256 138.045 24.6725 137.632 24.2963C137.581 24.2492 137.532 24.2003 137.484 24.1496C137.536 24.043 137.544 23.9206 137.508 23.8079C137.471 23.6953 137.392 23.6011 137.288 23.5451L138.356 22.2568C138.395 22.305 138.443 22.3448 138.497 22.3738C138.552 22.4029 138.612 22.4206 138.673 22.426C138.735 22.4313 138.797 22.4241 138.856 22.4048C138.914 22.3855 138.969 22.3546 139.015 22.3138C139.104 22.4042 139.196 22.4904 139.294 22.5689C139.746 22.9357 140.165 23.0923 140.571 23.244C140.929 23.3774 141.269 23.5058 141.613 23.7737ZM140.166 23.5303C139.997 23.734 139.852 23.7476 139.648 23.5788L139.413 23.8619C139.523 23.9529 139.634 24.0091 139.745 24.0382L139.227 24.6627L139.51 24.8973L140.449 23.765L140.166 23.5303ZM141.11 24.5518C141.054 24.5051 140.981 24.4827 140.908 24.4895C140.835 24.4963 140.768 24.5318 140.722 24.5881C140.675 24.6444 140.652 24.717 140.659 24.7898C140.666 24.8626 140.702 24.9297 140.758 24.9764C140.814 25.0231 140.887 25.0455 140.96 25.0386C141.032 25.0318 141.1 24.9964 141.146 24.9401C141.193 24.8838 141.215 24.8112 141.208 24.7384C141.202 24.6656 141.166 24.5984 141.11 24.5518ZM138.635 23.2166C138.578 23.1699 138.506 23.1475 138.433 23.1543C138.36 23.1612 138.293 23.1966 138.246 23.2529C138.2 23.3092 138.177 23.3818 138.184 23.4546C138.191 23.5274 138.226 23.5946 138.283 23.6412C138.339 23.6879 138.412 23.7103 138.484 23.7035C138.557 23.6967 138.624 23.6612 138.671 23.6049C138.718 23.5486 138.74 23.476 138.733 23.4032C138.727 23.3304 138.691 23.2633 138.635 23.2166Z" fill="#FFCC7E"/>
<path d="M144.291 15.8574C143.796 15.8441 143.406 15.9572 143.027 16.0665C142.621 16.1832 142.237 16.2932 141.716 16.2701C141.367 16.2567 141.022 16.1774 140.686 16.0402L140.447 15.9428L140.276 19.0786L140.396 19.1288C140.709 19.2591 141.032 19.342 141.356 19.3751C141.407 19.3803 141.458 19.3844 141.507 19.3871C142.06 19.4172 142.492 19.2935 142.91 19.1741C143.351 19.0479 143.767 18.9286 144.323 18.9853C144.617 19.0165 144.906 19.0908 145.179 19.2057L145.419 19.3057L145.59 16.1686L145.471 16.118C145.165 15.9872 144.841 15.904 144.51 15.8712C144.437 15.8639 144.364 15.8594 144.291 15.8574ZM144.281 16.2225C144.344 16.2241 144.407 16.2276 144.474 16.2337C144.542 16.2404 144.61 16.2504 144.678 16.2622C144.7 16.3789 144.766 16.4827 144.863 16.5517C144.959 16.6207 145.079 16.6496 145.196 16.6323L145.105 18.3032C145.046 18.2877 144.984 18.2843 144.923 18.2932C144.862 18.3021 144.804 18.3231 144.751 18.355C144.699 18.387 144.653 18.4291 144.617 18.479C144.581 18.5288 144.556 18.5854 144.542 18.6454C144.482 18.6358 144.421 18.6279 144.36 18.6218C143.735 18.5601 143.264 18.6926 142.809 18.8232C142.367 18.9497 141.949 19.0692 141.393 19.0124C141.324 19.005 141.255 18.9952 141.187 18.9828C141.165 18.8664 141.099 18.763 141.002 18.6942C140.906 18.6254 140.787 18.5966 140.669 18.6138L140.761 16.9429C140.82 16.9585 140.883 16.9619 140.944 16.9527C141.005 16.9436 141.064 16.9222 141.116 16.8898C141.169 16.8574 141.215 16.8147 141.25 16.7643C141.286 16.7138 141.311 16.6566 141.324 16.5962C141.449 16.6161 141.575 16.6305 141.7 16.6353C142.281 16.6611 142.712 16.5371 143.128 16.4173C143.495 16.3115 143.845 16.2124 144.281 16.2225ZM142.973 16.8888C142.958 17.1529 142.85 17.2503 142.586 17.2359L142.566 17.6031C142.708 17.6108 142.831 17.5897 142.937 17.5474L142.893 18.3574L143.26 18.3774L143.34 16.9088L142.973 16.8888ZM144.34 17.1474C144.267 17.1434 144.195 17.1686 144.141 17.2174C144.086 17.2663 144.053 17.3347 144.049 17.4077C144.045 17.4808 144.07 17.5524 144.119 17.6068C144.168 17.6613 144.237 17.6941 144.31 17.6981C144.383 17.7021 144.454 17.6769 144.509 17.6281C144.563 17.5792 144.596 17.5108 144.6 17.4378C144.604 17.3647 144.579 17.2931 144.53 17.2387C144.481 17.1842 144.413 17.1514 144.34 17.1474ZM141.556 17.548C141.483 17.544 141.411 17.5692 141.357 17.6181C141.303 17.6669 141.27 17.7353 141.266 17.8084C141.262 17.8814 141.287 17.953 141.336 18.0075C141.385 18.0619 141.453 18.0948 141.526 18.0987C141.599 18.1027 141.671 18.0775 141.725 18.0287C141.78 17.9799 141.812 17.9114 141.816 17.8384C141.82 17.7654 141.795 17.6937 141.746 17.6393C141.698 17.5848 141.629 17.552 141.556 17.548Z" fill="#FFCC7E"/>
<path d="M151.29 23.154C150.797 23.2018 150.424 23.3623 150.061 23.5177C149.672 23.6836 149.306 23.8402 148.785 23.8817C148.438 23.9114 148.085 23.8754 147.734 23.7808L147.485 23.7137L147.703 26.8465L147.828 26.8815C148.155 26.9721 148.486 27.0146 148.811 27.0074C148.863 27.0062 148.914 27.004 148.963 27.0005C149.516 26.9621 149.929 26.786 150.329 26.6159C150.751 26.4362 151.149 26.2664 151.708 26.2539C152.004 26.2486 152.299 26.2867 152.584 26.367L152.835 26.4365L152.617 23.3024L152.493 23.2668C152.173 23.1748 151.841 23.1323 151.508 23.1406C151.435 23.1424 151.362 23.1469 151.29 23.154ZM151.325 23.5175C151.387 23.5113 151.451 23.5069 151.517 23.5049C151.586 23.503 151.655 23.5045 151.724 23.5078C151.76 23.621 151.838 23.7158 151.943 23.7723C152.047 23.8289 152.169 23.8428 152.284 23.8111L152.4 25.4805C152.339 25.4724 152.277 25.4767 152.218 25.493C152.158 25.5094 152.103 25.5375 152.055 25.5756C152.007 25.6138 151.967 25.6612 151.937 25.7152C151.908 25.7691 151.889 25.8284 151.883 25.8896C151.822 25.8875 151.761 25.8872 151.7 25.8887C151.071 25.9047 150.62 26.0944 150.185 26.2802C149.762 26.4603 149.362 26.6306 148.804 26.6429C148.734 26.6441 148.665 26.6427 148.595 26.6389C148.559 26.5261 148.481 26.4317 148.377 26.3753C148.272 26.319 148.15 26.3051 148.036 26.3367L147.92 24.6673C147.982 24.6754 148.044 24.6711 148.103 24.6544C148.163 24.6378 148.219 24.6094 148.267 24.5707C148.315 24.5321 148.355 24.484 148.384 24.4296C148.413 24.3751 148.431 24.3152 148.437 24.2536C148.563 24.2579 148.689 24.2567 148.815 24.246C149.395 24.1998 149.806 24.0235 150.205 23.8532C150.556 23.7029 150.891 23.5613 151.325 23.5175ZM150.109 24.3403C150.127 24.6042 150.032 24.7143 149.768 24.7326L149.793 25.0994C149.935 25.0895 150.055 25.0534 150.155 24.9983L150.211 25.8075L150.578 25.782L150.476 24.3148L150.109 24.3403ZM151.497 24.4281C151.424 24.4331 151.356 24.467 151.308 24.5222C151.26 24.5774 151.236 24.6493 151.241 24.7223C151.246 24.7953 151.28 24.8632 151.335 24.9112C151.391 24.9592 151.462 24.9834 151.535 24.9783C151.608 24.9732 151.676 24.9394 151.724 24.8842C151.772 24.829 151.797 24.757 151.791 24.6841C151.786 24.6111 151.753 24.5431 151.697 24.4951C151.642 24.4471 151.57 24.423 151.497 24.4281ZM148.784 25.1695C148.711 25.1746 148.644 25.2084 148.596 25.2636C148.547 25.3188 148.523 25.3908 148.528 25.4638C148.534 25.5367 148.567 25.6047 148.623 25.6527C148.678 25.7007 148.75 25.7248 148.823 25.7197C148.896 25.7147 148.964 25.6808 149.012 25.6256C149.06 25.5705 149.084 25.4985 149.079 25.4255C149.074 25.3525 149.04 25.2846 148.985 25.2366C148.929 25.1886 148.857 25.1645 148.784 25.1695Z" fill="#FFCC7E"/>
<path d="M143.497 29.5361C143.07 29.548 142.738 29.6662 142.416 29.7804C142.071 29.9024 141.745 30.0175 141.294 30.0222C140.992 30.027 140.69 29.9739 140.393 29.8694L140.183 29.7953V32.5595L140.288 32.5979C140.565 32.6974 140.847 32.7549 141.129 32.7684C141.173 32.7705 141.217 32.7717 141.26 32.7717C141.739 32.7717 142.106 32.6422 142.461 32.5173C142.836 32.3852 143.189 32.2605 143.672 32.2836C143.928 32.297 144.18 32.3485 144.421 32.4364L144.633 32.5128V29.7474L144.528 29.7086C144.258 29.6083 143.974 29.5506 143.687 29.5377C143.623 29.5348 143.56 29.5343 143.497 29.5361ZM143.506 29.8574C143.56 29.8558 143.615 29.8558 143.673 29.8581C143.732 29.8607 143.791 29.8662 143.851 29.8733C143.875 29.9748 143.937 30.0629 144.023 30.1189C144.11 30.1749 144.215 30.1946 144.315 30.1738V31.6467C144.263 31.6359 144.209 31.6359 144.157 31.6466C144.105 31.6574 144.056 31.6786 144.012 31.7092C143.968 31.7398 143.931 31.779 143.902 31.8246C143.873 31.8701 143.854 31.9211 143.845 31.9744C143.792 31.9689 143.74 31.9649 143.687 31.9624C143.144 31.9381 142.744 32.0771 142.357 32.2137C141.982 32.3461 141.626 32.4712 141.144 32.4479C141.084 32.4447 141.024 32.4393 140.964 32.4317C140.94 32.3304 140.878 32.2427 140.792 32.1869C140.705 32.1311 140.601 32.1114 140.501 32.1322V30.6593C140.553 30.6701 140.607 30.6701 140.659 30.6591C140.712 30.6482 140.761 30.6265 140.805 30.5956C140.849 30.5646 140.886 30.5248 140.915 30.4788C140.943 30.4327 140.962 30.3813 140.971 30.3275C141.08 30.339 141.189 30.3456 141.297 30.3439C141.8 30.3387 142.166 30.2091 142.52 30.0838C142.832 29.9733 143.129 29.8694 143.506 29.8574ZM142.408 30.3439C142.057 30.3439 141.772 30.7068 141.772 31.153C141.772 31.5991 142.057 31.9621 142.408 31.9621C142.758 31.9621 143.044 31.5991 143.044 31.153C143.044 30.7068 142.758 30.3439 142.408 30.3439ZM142.408 30.6675C142.58 30.6675 142.726 30.8899 142.726 31.153C142.726 31.4161 142.58 31.6384 142.408 31.6384C142.236 31.6384 142.09 31.4161 142.09 31.153C142.09 30.8899 142.236 30.6675 142.408 30.6675ZM143.6 30.6675C143.537 30.6675 143.476 30.6931 143.431 30.7386C143.387 30.7841 143.361 30.8459 143.361 30.9102C143.361 30.9746 143.387 31.0364 143.431 31.0819C143.476 31.1274 143.537 31.153 143.6 31.153C143.663 31.153 143.724 31.1274 143.768 31.0819C143.813 31.0364 143.838 30.9746 143.838 30.9102C143.838 30.8459 143.813 30.7841 143.768 30.7386C143.724 30.6931 143.663 30.6675 143.6 30.6675ZM141.216 31.153C141.153 31.153 141.092 31.1786 141.047 31.2241C141.002 31.2696 140.977 31.3313 140.977 31.3957C140.977 31.4601 141.002 31.5218 141.047 31.5673C141.092 31.6129 141.153 31.6384 141.216 31.6384C141.279 31.6384 141.34 31.6129 141.384 31.5673C141.429 31.5218 141.454 31.4601 141.454 31.3957C141.454 31.3313 141.429 31.2696 141.384 31.2241C141.34 31.1786 141.279 31.153 141.216 31.153Z" fill="#FFCC7E"/>
<path d="M131.654 23.6712C131.299 23.9103 131.083 24.1876 130.871 24.457C130.645 24.7449 130.432 25.0165 130.054 25.2622C129.802 25.4279 129.518 25.5449 129.212 25.6156L128.994 25.6659L130.475 27.9999L130.585 27.9756C130.872 27.9116 131.141 27.8086 131.386 27.6694C131.425 27.6472 131.462 27.6248 131.498 27.6018C131.903 27.3452 132.143 27.0394 132.376 26.7435C132.622 26.4312 132.854 26.1364 133.273 25.8975C133.496 25.7718 133.737 25.6801 133.988 25.6252L134.208 25.5761L132.726 23.2411L132.617 23.2643C132.335 23.3245 132.064 23.428 131.814 23.5711C131.76 23.6025 131.706 23.6359 131.654 23.6712ZM131.833 23.9379C131.878 23.9076 131.925 23.878 131.974 23.8491C132.026 23.8195 132.079 23.7923 132.133 23.7665C132.208 23.8393 132.307 23.8805 132.41 23.8814C132.513 23.8823 132.612 23.8429 132.686 23.7714L133.475 25.0151C133.425 25.0339 133.38 25.0626 133.342 25.0996C133.304 25.1365 133.273 25.181 133.253 25.2303C133.232 25.2796 133.222 25.3327 133.222 25.3866C133.222 25.4404 133.233 25.4938 133.254 25.5436C133.207 25.5671 133.16 25.5921 133.114 25.6183C132.643 25.8886 132.379 26.2204 132.126 26.543C131.88 26.8558 131.646 27.1519 131.227 27.3905C131.175 27.42 131.121 27.4476 131.067 27.4731C130.992 27.4007 130.892 27.3598 130.79 27.359C130.687 27.3582 130.588 27.3975 130.514 27.4688L129.725 26.2251C129.775 26.2062 129.821 26.1772 129.859 26.1399C129.898 26.1026 129.928 26.0578 129.948 26.0081C129.969 25.9584 129.979 25.9048 129.978 25.8507C129.978 25.7965 129.966 25.7429 129.945 25.693C130.043 25.6444 130.138 25.5917 130.229 25.532C130.651 25.2581 130.89 24.9527 131.122 24.6573C131.326 24.397 131.521 24.1501 131.833 23.9379ZM131.167 24.9369C130.871 25.1248 130.824 25.584 131.063 25.9607C131.302 26.3374 131.738 26.4911 132.034 26.3033C132.33 26.1154 132.376 25.6562 132.137 25.2795C131.898 24.9028 131.463 24.7491 131.167 24.9369ZM131.34 25.2102C131.486 25.1179 131.728 25.2276 131.869 25.4498C132.01 25.672 132.006 25.9377 131.86 26.03C131.715 26.1223 131.473 26.0126 131.332 25.7904C131.191 25.5682 131.195 25.3025 131.34 25.2102ZM132.347 24.5715C132.293 24.6054 132.256 24.6595 132.242 24.7219C132.229 24.7843 132.241 24.8498 132.275 24.9042C132.31 24.9586 132.364 24.9972 132.426 25.0117C132.488 25.0262 132.553 25.0153 132.607 24.9814C132.66 24.9475 132.698 24.8935 132.711 24.8311C132.724 24.7687 132.713 24.7031 132.678 24.6487C132.644 24.5944 132.589 24.5557 132.527 24.5412C132.465 24.5267 132.4 24.5376 132.347 24.5715ZM130.594 26.2588C130.54 26.2927 130.503 26.3467 130.489 26.4091C130.476 26.4715 130.488 26.5371 130.522 26.5915C130.557 26.6458 130.611 26.6845 130.673 26.699C130.735 26.7135 130.8 26.7026 130.854 26.6687C130.907 26.6348 130.945 26.5807 130.958 26.5183C130.971 26.4559 130.96 26.3904 130.925 26.336C130.891 26.2816 130.836 26.243 130.774 26.2285C130.712 26.214 130.647 26.2249 130.594 26.2588Z" fill="#FFCC7E"/>
<path d="M135.425 17.5496C134.92 17.2345 134.447 17.1141 133.987 16.996C133.495 16.8695 133.031 16.7501 132.505 16.4085C132.152 16.1822 131.842 15.8896 131.578 15.5425L131.389 15.2961L129.302 18.4412L129.396 18.5663C129.641 18.892 129.925 19.1746 130.24 19.4064C130.29 19.4431 130.34 19.478 130.39 19.511C130.945 19.8792 131.467 20.0139 131.973 20.1451C132.507 20.283 133.011 20.4128 133.552 20.8101C133.838 21.0219 134.092 21.2745 134.305 21.5598L134.493 21.8098L136.581 18.6633L136.489 18.5387C136.252 18.2167 135.966 17.9328 135.643 17.697C135.572 17.6453 135.499 17.5961 135.425 17.5496ZM135.192 17.9219C135.256 17.9616 135.32 18.0041 135.385 18.0508C135.452 18.0994 135.516 18.1514 135.58 18.2051C135.531 18.3392 135.536 18.487 135.594 18.6173C135.652 18.7477 135.758 18.8505 135.891 18.9041L134.778 20.5799C134.726 20.5276 134.664 20.4863 134.596 20.4585C134.527 20.4307 134.454 20.4169 134.38 20.418C134.306 20.4191 134.233 20.435 134.166 20.4648C134.098 20.4945 134.037 20.5376 133.986 20.5914C133.93 20.5447 133.871 20.4995 133.812 20.4561C133.202 20.0111 132.633 19.8616 132.082 19.7195C131.547 19.5816 131.041 19.4506 130.5 19.0534C130.433 19.0036 130.367 18.9514 130.304 18.8969C130.352 18.7629 130.347 18.6155 130.289 18.4855C130.231 18.3555 130.125 18.253 129.993 18.1994L131.105 16.5235C131.158 16.5762 131.22 16.6176 131.289 16.6454C131.358 16.6732 131.432 16.6868 131.506 16.6853C131.581 16.6838 131.654 16.6673 131.722 16.6368C131.789 16.6063 131.85 16.5624 131.901 16.5077C132.018 16.6045 132.139 16.6957 132.266 16.7772C132.853 17.1581 133.374 17.2918 133.879 17.4214C134.323 17.5353 134.746 17.6455 135.192 17.9219ZM133.553 17.6311C133.147 17.3616 132.542 17.5553 132.205 18.0629C131.868 18.5705 131.925 19.2027 132.331 19.4723C132.737 19.7419 133.341 19.5482 133.678 19.0406C134.015 18.5329 133.959 17.9007 133.553 17.6311ZM133.308 17.9994C133.508 18.1319 133.509 18.4968 133.31 18.7961C133.111 19.0955 132.775 19.2366 132.575 19.1041C132.376 18.9716 132.375 18.6067 132.574 18.3073C132.772 18.008 133.109 17.8669 133.308 17.9994ZM134.689 18.9159C134.616 18.8673 134.526 18.8498 134.44 18.8672C134.354 18.8846 134.278 18.9355 134.23 19.0088C134.181 19.082 134.164 19.1716 134.181 19.2578C134.198 19.3439 134.249 19.4197 134.323 19.4683C134.396 19.5169 134.485 19.5344 134.572 19.517C134.658 19.4996 134.734 19.4486 134.782 19.3754C134.831 19.3022 134.848 19.2126 134.831 19.1264C134.813 19.0403 134.763 18.9645 134.689 18.9159ZM131.561 17.6352C131.488 17.5866 131.398 17.5691 131.312 17.5865C131.226 17.6039 131.15 17.6548 131.101 17.7281C131.053 17.8013 131.035 17.8909 131.053 17.9771C131.07 18.0632 131.121 18.1389 131.194 18.1876C131.268 18.2362 131.357 18.2537 131.443 18.2363C131.529 18.2189 131.605 18.1679 131.654 18.0947C131.702 18.0214 131.72 17.9319 131.702 17.8457C131.685 17.7595 131.634 17.6838 131.561 17.6352Z" fill="#FFCC7E"/>
<path d="M150.738 33.332C150.407 33.272 150.125 33.3364 149.852 33.3982C149.559 33.4642 149.283 33.5263 148.934 33.455C148.701 33.409 148.481 33.304 148.276 33.1475L148.13 33.0365L147.513 35.8504L147.586 35.9073C147.776 36.0553 147.981 36.1614 148.194 36.2228C148.228 36.2324 148.262 36.241 148.295 36.2482C148.663 36.329 148.974 36.2591 149.276 36.192C149.593 36.1208 149.893 36.0534 150.259 36.1584C150.453 36.2152 150.636 36.3101 150.801 36.4403L150.947 36.5538L151.565 33.7388L151.493 33.6816C151.307 33.5339 151.102 33.4273 150.884 33.3656C150.836 33.3521 150.787 33.3408 150.738 33.332ZM150.673 33.6606C150.715 33.6681 150.758 33.6774 150.801 33.6894C150.846 33.7021 150.891 33.7177 150.935 33.7349C150.931 33.8424 150.959 33.9425 151.013 34.0141C151.067 34.0858 151.143 34.1234 151.225 34.1192L150.896 35.6186C150.859 35.5988 150.817 35.5897 150.775 35.5919C150.732 35.594 150.69 35.6073 150.649 35.6311C150.608 35.6548 150.571 35.6884 150.539 35.7299C150.507 35.7715 150.48 35.8201 150.461 35.8728C150.422 35.8583 150.382 35.8454 150.342 35.8339C149.93 35.7176 149.591 35.7916 149.263 35.8653C148.945 35.9368 148.643 36.0041 148.278 35.899C148.232 35.8856 148.187 35.87 148.143 35.8522C148.147 35.745 148.119 35.6453 148.065 35.5739C148.011 35.5024 147.935 35.4649 147.853 35.469L148.182 33.9697C148.22 33.9896 148.261 33.9986 148.304 33.9963C148.347 33.994 148.39 33.9804 148.431 33.9562C148.471 33.9321 148.509 33.898 148.541 33.8559C148.573 33.8138 148.599 33.7646 148.618 33.7113C148.699 33.7414 148.781 33.7665 148.865 33.783C149.253 33.8627 149.564 33.7924 149.864 33.7247C150.129 33.6648 150.38 33.6091 150.673 33.6606ZM149.72 33.9705C149.45 33.9113 149.15 34.2327 149.05 34.6868C148.95 35.141 149.089 35.5586 149.358 35.6178C149.628 35.6769 149.929 35.3556 150.028 34.9014C150.128 34.4473 149.99 34.0297 149.72 33.9705ZM149.648 34.2999C149.78 34.329 149.842 34.5799 149.784 34.8478C149.725 35.1156 149.563 35.3174 149.431 35.2883C149.298 35.2592 149.236 35.0083 149.295 34.7405C149.353 34.4726 149.515 34.2709 149.648 34.2999ZM150.565 34.5011C150.516 34.4904 150.464 34.5062 150.419 34.545C150.374 34.5838 150.341 34.6424 150.327 34.708C150.313 34.7735 150.318 34.8406 150.342 34.8945C150.367 34.9484 150.408 34.9846 150.456 34.9953C150.505 35.006 150.557 34.9902 150.602 34.9514C150.646 34.9126 150.679 34.854 150.694 34.7884C150.708 34.7229 150.703 34.6558 150.678 34.6019C150.654 34.548 150.613 34.5118 150.565 34.5011ZM148.622 34.593C148.573 34.5823 148.521 34.5981 148.476 34.6369C148.432 34.6757 148.399 34.7343 148.384 34.7998C148.37 34.8653 148.376 34.9324 148.4 34.9863C148.424 35.0402 148.465 35.0765 148.514 35.0871C148.562 35.0978 148.615 35.082 148.659 35.0432C148.704 35.0044 148.737 34.9458 148.751 34.8803C148.766 34.8147 148.76 34.7477 148.736 34.6938C148.712 34.6399 148.671 34.6036 148.622 34.593Z" fill="#FFCC7E"/>
<g filter="url(#filter1_i)">
<path d="M120.067 62.144C120.067 61.296 120.295 60.66 120.751 60.236C121.207 59.812 121.923 59.6 122.899 59.6H125.767V60.5H122.899C122.315 60.5 121.887 60.636 121.615 60.908C121.343 61.172 121.207 61.584 121.207 62.144V63.584H125.179V64.496H121.207V68H120.067V62.144ZM130.07 62.228C130.414 62.228 130.702 62.312 130.934 62.48L130.67 63.404C130.398 63.244 130.11 63.164 129.806 63.164C129.446 63.164 129.138 63.316 128.882 63.62C128.626 63.924 128.438 64.332 128.318 64.844V68H127.262V63.62C127.262 63.452 127.23 63.316 127.166 63.212C127.102 63.1 126.986 62.98 126.818 62.852L127.526 62.228C127.806 62.38 128.002 62.548 128.114 62.732C128.234 62.908 128.302 63.156 128.318 63.476C128.494 63.084 128.73 62.78 129.026 62.564C129.322 62.34 129.67 62.228 130.07 62.228ZM134.305 67.316C134.633 67.316 134.913 67.268 135.145 67.172C135.385 67.076 135.617 66.92 135.841 66.704L136.489 67.292C136.249 67.58 135.949 67.792 135.589 67.928C135.237 68.064 134.801 68.132 134.281 68.132C133.457 68.132 132.833 67.956 132.409 67.604C131.993 67.244 131.785 66.712 131.785 66.008V64.22C131.785 63.604 131.997 63.12 132.421 62.768C132.853 62.408 133.441 62.228 134.185 62.228C134.953 62.228 135.545 62.416 135.961 62.792C136.385 63.168 136.597 63.708 136.597 64.412C136.597 64.884 136.513 65.208 136.345 65.384C136.185 65.56 135.873 65.648 135.409 65.648H132.841V66.02C132.841 66.452 132.961 66.776 133.201 66.992C133.441 67.208 133.809 67.316 134.305 67.316ZM134.185 63.044C133.761 63.044 133.429 63.156 133.189 63.38C132.957 63.604 132.841 63.908 132.841 64.292V64.892H134.893C135.141 64.892 135.309 64.852 135.397 64.772C135.493 64.692 135.541 64.54 135.541 64.316C135.541 63.916 135.421 63.604 135.181 63.38C134.941 63.156 134.609 63.044 134.185 63.044ZM140.558 67.316C140.886 67.316 141.166 67.268 141.398 67.172C141.638 67.076 141.87 66.92 142.094 66.704L142.742 67.292C142.502 67.58 142.202 67.792 141.842 67.928C141.49 68.064 141.054 68.132 140.534 68.132C139.71 68.132 139.086 67.956 138.662 67.604C138.246 67.244 138.038 66.712 138.038 66.008V64.22C138.038 63.604 138.25 63.12 138.674 62.768C139.106 62.408 139.694 62.228 140.438 62.228C141.206 62.228 141.798 62.416 142.214 62.792C142.638 63.168 142.85 63.708 142.85 64.412C142.85 64.884 142.766 65.208 142.598 65.384C142.438 65.56 142.126 65.648 141.662 65.648H139.094V66.02C139.094 66.452 139.214 66.776 139.454 66.992C139.694 67.208 140.062 67.316 140.558 67.316ZM140.438 63.044C140.014 63.044 139.682 63.156 139.442 63.38C139.21 63.604 139.094 63.908 139.094 64.292V64.892H141.146C141.394 64.892 141.562 64.852 141.65 64.772C141.746 64.692 141.794 64.54 141.794 64.316C141.794 63.916 141.674 63.604 141.434 63.38C141.194 63.156 140.862 63.044 140.438 63.044ZM109.31 80.132C108.542 80.132 107.922 80.016 107.45 79.784C106.986 79.552 106.55 79.168 106.142 78.632L106.91 77.972C107.246 78.436 107.59 78.764 107.942 78.956C108.294 79.14 108.738 79.232 109.274 79.232C109.986 79.232 110.526 79.108 110.894 78.86C111.27 78.604 111.458 78.232 111.458 77.744C111.458 77.464 111.382 77.236 111.23 77.06C111.086 76.884 110.83 76.732 110.462 76.604C110.094 76.468 109.55 76.328 108.83 76.184C108.022 76.024 107.426 75.752 107.042 75.368C106.658 74.984 106.466 74.476 106.466 73.844C106.466 73.108 106.73 72.528 107.258 72.104C107.794 71.68 108.526 71.468 109.454 71.468C110.822 71.468 111.79 71.92 112.358 72.824L111.59 73.448C111.31 73.088 110.998 72.82 110.654 72.644C110.318 72.46 109.914 72.368 109.442 72.368C108.866 72.368 108.414 72.5 108.086 72.764C107.766 73.02 107.606 73.372 107.606 73.82C107.606 74.22 107.766 74.536 108.086 74.768C108.406 74.992 108.89 75.168 109.538 75.296C110.282 75.448 110.87 75.616 111.302 75.8C111.734 75.984 112.058 76.228 112.274 76.532C112.49 76.836 112.598 77.236 112.598 77.732C112.598 78.524 112.318 79.124 111.758 79.532C111.206 79.932 110.39 80.132 109.31 80.132ZM117.314 74.228C117.898 74.228 118.35 74.396 118.67 74.732C118.998 75.068 119.162 75.54 119.162 76.148V80H118.106V76.28C118.106 75.896 118.01 75.596 117.818 75.38C117.634 75.164 117.374 75.056 117.038 75.056C116.654 75.056 116.326 75.188 116.054 75.452C115.782 75.716 115.582 76.072 115.454 76.52V80H114.398V72.596C114.398 72.428 114.366 72.292 114.302 72.188C114.238 72.076 114.122 71.956 113.954 71.828L114.65 71.204C114.954 71.364 115.162 71.548 115.274 71.756C115.394 71.956 115.454 72.236 115.454 72.596V75.296C115.638 74.96 115.886 74.7 116.198 74.516C116.518 74.324 116.89 74.228 117.314 74.228ZM121.778 73.256C121.594 73.256 121.434 73.192 121.298 73.064C121.17 72.928 121.106 72.768 121.106 72.584C121.106 72.4 121.17 72.244 121.298 72.116C121.434 71.98 121.594 71.912 121.778 71.912C121.962 71.912 122.118 71.98 122.246 72.116C122.382 72.244 122.45 72.4 122.45 72.584C122.45 72.768 122.382 72.928 122.246 73.064C122.118 73.192 121.962 73.256 121.778 73.256ZM122.042 80.132C121.746 79.972 121.538 79.792 121.418 79.592C121.306 79.384 121.25 79.1 121.25 78.74V74.36H122.306V78.74C122.306 78.908 122.338 79.048 122.402 79.16C122.466 79.264 122.582 79.38 122.75 79.508L122.042 80.132ZM127.465 74.228C127.993 74.228 128.441 74.356 128.809 74.612C129.185 74.86 129.465 75.196 129.649 75.62C129.833 76.036 129.925 76.492 129.925 76.988V77.372C129.925 77.868 129.833 78.328 129.649 78.752C129.465 79.168 129.185 79.504 128.809 79.76C128.441 80.008 127.993 80.132 127.465 80.132C126.985 80.132 126.601 80.056 126.313 79.904C126.033 79.744 125.805 79.532 125.629 79.268V82.628H124.573V75.62C124.573 75.452 124.541 75.316 124.477 75.212C124.413 75.1 124.297 74.98 124.129 74.852L124.825 74.228C125.057 74.356 125.229 74.492 125.341 74.636C125.461 74.78 125.537 74.96 125.569 75.176C125.985 74.544 126.617 74.228 127.465 74.228ZM128.869 76.988C128.869 76.42 128.717 75.956 128.413 75.596C128.117 75.236 127.717 75.056 127.213 75.056C126.397 75.056 125.869 75.452 125.629 76.244V78.116C125.869 78.908 126.397 79.304 127.213 79.304C127.717 79.304 128.117 79.124 128.413 78.764C128.717 78.404 128.869 77.94 128.869 77.372V76.988ZM134.222 74.228C134.75 74.228 135.198 74.356 135.566 74.612C135.942 74.86 136.222 75.196 136.406 75.62C136.59 76.036 136.682 76.492 136.682 76.988V77.372C136.682 77.868 136.59 78.328 136.406 78.752C136.222 79.168 135.942 79.504 135.566 79.76C135.198 80.008 134.75 80.132 134.222 80.132C133.742 80.132 133.358 80.056 133.07 79.904C132.79 79.744 132.562 79.532 132.386 79.268V82.628H131.33V75.62C131.33 75.452 131.298 75.316 131.234 75.212C131.17 75.1 131.054 74.98 130.886 74.852L131.582 74.228C131.814 74.356 131.986 74.492 132.098 74.636C132.218 74.78 132.294 74.96 132.326 75.176C132.742 74.544 133.374 74.228 134.222 74.228ZM135.626 76.988C135.626 76.42 135.474 75.956 135.17 75.596C134.874 75.236 134.474 75.056 133.97 75.056C133.154 75.056 132.626 75.452 132.386 76.244V78.116C132.626 78.908 133.154 79.304 133.97 79.304C134.474 79.304 134.874 79.124 135.17 78.764C135.474 78.404 135.626 77.94 135.626 77.372V76.988ZM139.061 73.256C138.877 73.256 138.717 73.192 138.581 73.064C138.453 72.928 138.389 72.768 138.389 72.584C138.389 72.4 138.453 72.244 138.581 72.116C138.717 71.98 138.877 71.912 139.061 71.912C139.245 71.912 139.401 71.98 139.529 72.116C139.665 72.244 139.733 72.4 139.733 72.584C139.733 72.768 139.665 72.928 139.529 73.064C139.401 73.192 139.245 73.256 139.061 73.256ZM139.325 80.132C139.029 79.972 138.821 79.792 138.701 79.592C138.589 79.384 138.533 79.1 138.533 78.74V74.36H139.589V78.74C139.589 78.908 139.621 79.048 139.685 79.16C139.749 79.264 139.865 79.38 140.033 79.508L139.325 80.132ZM144.771 74.228C145.355 74.228 145.807 74.396 146.127 74.732C146.455 75.068 146.619 75.54 146.619 76.148V80H145.563V76.28C145.563 75.896 145.467 75.596 145.275 75.38C145.083 75.164 144.819 75.056 144.483 75.056C144.107 75.056 143.783 75.188 143.511 75.452C143.239 75.716 143.039 76.072 142.911 76.52V80H141.855V75.62C141.855 75.452 141.823 75.316 141.759 75.212C141.695 75.1 141.579 74.98 141.411 74.852L142.107 74.228C142.363 74.372 142.551 74.524 142.671 74.684C142.791 74.844 142.867 75.052 142.899 75.308C143.083 74.972 143.335 74.708 143.655 74.516C143.975 74.324 144.347 74.228 144.771 74.228ZM154.036 74.852C153.868 74.98 153.752 75.1 153.688 75.212C153.624 75.316 153.592 75.452 153.592 75.62V80.336C153.592 81.04 153.404 81.56 153.028 81.896C152.652 82.232 152.064 82.4 151.264 82.4H149.776V81.572H151.264C151.688 81.572 152.004 81.468 152.212 81.26C152.428 81.06 152.536 80.752 152.536 80.336V79.136C152.144 79.712 151.536 80 150.712 80C149.952 80 149.348 79.752 148.9 79.256C148.46 78.76 148.24 78.088 148.24 77.24V76.988C148.24 76.452 148.336 75.976 148.528 75.56C148.728 75.144 149.012 74.82 149.38 74.588C149.756 74.348 150.2 74.228 150.712 74.228C151.12 74.228 151.484 74.308 151.804 74.468C152.124 74.628 152.392 74.86 152.608 75.164C152.64 74.956 152.708 74.78 152.812 74.636C152.916 74.492 153.088 74.356 153.328 74.228L154.036 74.852ZM150.952 79.172C151.368 79.172 151.704 79.072 151.96 78.872C152.216 78.672 152.408 78.368 152.536 77.96V76.256C152.408 75.848 152.212 75.548 151.948 75.356C151.692 75.156 151.36 75.056 150.952 75.056C150.448 75.056 150.044 75.236 149.74 75.596C149.444 75.956 149.296 76.42 149.296 76.988V77.24C149.296 77.808 149.444 78.272 149.74 78.632C150.036 78.992 150.44 79.172 150.952 79.172ZM159.894 73.232H158.13L159.018 74.768L158.502 75.068L157.626 73.544L156.738 75.068L156.222 74.768L157.11 73.232H155.334V72.656H157.11L156.222 71.12L156.738 70.82L157.626 72.344L158.502 70.82L159.018 71.12L158.13 72.656H159.894V73.232Z" fill="#E9E9E9"/>
</g>
<path fill-rule="evenodd" clip-rule="evenodd" d="M222.733 31.6475C223.995 31.3071 225.335 31 226.137 31C226.938 31 228.279 31.3071 229.541 31.6475C230.667 31.9556 231.786 32.2907 232.896 32.6527C233.535 32.8599 234.017 33.421 234.11 34.1129C234.803 39.2892 233.195 43.1249 231.245 45.663C230.414 46.7523 229.428 47.7085 228.319 48.4997C227.933 48.775 227.526 49.0168 227.1 49.2224C226.774 49.3754 226.425 49.4999 226.137 49.4999C225.849 49.4999 225.5 49.3754 225.174 49.2224C224.748 49.0169 224.341 48.7752 223.955 48.4997C222.846 47.7084 221.86 46.7522 221.03 45.663C219.078 43.1249 217.471 39.2892 218.164 34.1129C218.211 33.7775 218.349 33.4624 218.564 33.204C218.779 32.9456 219.061 32.7544 219.378 32.6527C220.488 32.2907 221.607 31.9556 222.733 31.6475ZM226.76 40.1377C227.159 39.9889 227.494 39.7022 227.707 39.3275C227.92 38.9528 227.998 38.5138 227.926 38.087C227.854 37.6603 227.637 37.2728 227.314 36.992C226.99 36.7112 226.58 36.555 226.155 36.5505C225.73 36.546 225.317 36.6935 224.988 36.9674C224.659 37.2413 224.435 37.6241 224.354 38.0493C224.274 38.4744 224.342 38.9149 224.547 39.2941C224.752 39.6732 225.082 39.967 225.477 40.1242C225.452 40.1772 225.434 40.2337 225.424 40.2919L225.021 42.7586C225.007 42.8469 225.011 42.9373 225.035 43.0236C225.058 43.1099 225.1 43.19 225.156 43.2583C225.213 43.3266 225.284 43.3815 225.364 43.4191C225.443 43.4568 225.53 43.4763 225.618 43.4764H226.628C226.717 43.4764 226.804 43.4568 226.884 43.4189C226.964 43.3811 227.035 43.3258 227.091 43.2571C227.148 43.1883 227.19 43.1078 227.213 43.021C227.236 42.9343 227.24 42.8434 227.225 42.7549L226.805 40.2882C226.796 40.2363 226.781 40.1857 226.76 40.1377Z" fill="#FFCC7E"/>
<path d="M240.111 34.1498L236.418 34.1909C236.163 34.1937 235.958 34.3676 235.96 34.5786L235.985 36.8742C235.987 37.0852 236.196 37.2545 236.451 37.2517L240.144 37.2106C240.398 37.2078 240.604 37.0339 240.601 36.8229L240.577 34.5273C240.575 34.3163 240.366 34.147 240.111 34.1498ZM238.404 36.4647C238.251 36.4664 238.104 36.4176 237.995 36.3291C237.886 36.2406 237.824 36.1197 237.822 35.9928C237.821 35.866 237.88 35.7437 237.988 35.6528C238.095 35.5619 238.241 35.5099 238.394 35.5082C238.519 35.507 238.641 35.5401 238.741 35.6023C238.603 35.691 238.513 35.8292 238.515 35.9851C238.516 36.141 238.609 36.2772 238.75 36.3629C238.651 36.4273 238.53 36.463 238.404 36.4647ZM239.328 36.4544C239.175 36.4561 239.027 36.4073 238.918 36.3189C238.809 36.2304 238.747 36.1094 238.746 35.9826C238.744 35.8557 238.804 35.7334 238.911 35.6425C239.018 35.5516 239.164 35.4996 239.317 35.4979C239.471 35.4962 239.618 35.5449 239.727 35.6334C239.836 35.7219 239.898 35.8429 239.9 35.9697C239.901 36.0966 239.842 36.2189 239.734 36.3098C239.627 36.4007 239.481 36.4527 239.328 36.4544Z" fill="#FFCC7E"/>
<path d="M240.678 41.1694H236.131C236.034 41.1694 235.956 41.1071 235.956 41.0298V40.3319H240.853V41.0298C240.853 41.1071 240.775 41.1694 240.678 41.1694ZM235.956 38.238C235.956 38.1608 236.034 38.0984 236.131 38.0984H240.678C240.775 38.0984 240.853 38.1608 240.853 38.238V39.948H235.956V38.238ZM239.12 39.0406C239.12 39.0598 239.14 39.0755 239.164 39.0755H240.066C240.09 39.0755 240.11 39.0598 240.11 39.0406V38.7265C240.11 38.7074 240.09 38.6917 240.066 38.6917H239.164C239.14 38.6917 239.12 38.7074 239.12 38.7265V39.0406Z" fill="#FFCC7E"/>
<path d="M240.445 41.9373H236.364C236.139 41.9373 235.956 42.0662 235.956 42.2252V44.3365C235.956 44.4955 236.139 44.6244 236.364 44.6244H240.445C240.67 44.6244 240.853 44.4955 240.853 44.3365V42.2252C240.853 42.0662 240.67 41.9373 240.445 41.9373ZM240.445 44.3365H236.364V42.2252H240.445V44.3365ZM237.724 43.2808C238.024 43.2808 238.268 43.1087 238.268 42.897C238.268 42.6852 238.024 42.5131 237.724 42.5131C237.424 42.5131 237.18 42.6852 237.18 42.897C237.18 43.1087 237.424 43.2808 237.724 43.2808ZM236.963 44.0486H238.486C238.592 44.0486 238.677 43.997 238.677 43.9334V43.8183C238.677 43.6275 238.421 43.4728 238.105 43.4728C238.013 43.4728 237.946 43.5208 237.724 43.5208C237.496 43.5208 237.44 43.4728 237.344 43.4728C237.028 43.4728 236.772 43.6275 236.772 43.8183V43.9334C236.772 43.997 236.857 44.0486 236.963 44.0486ZM239.017 43.6647H239.969C240.006 43.6647 240.037 43.6431 240.037 43.6167V43.5208C240.037 43.4944 240.006 43.4728 239.969 43.4728H239.017C238.979 43.4728 238.949 43.4944 238.949 43.5208V43.6167C238.949 43.6431 238.979 43.6647 239.017 43.6647ZM239.017 43.2808H239.969C240.006 43.2808 240.037 43.2592 240.037 43.2329V43.1369C240.037 43.1105 240.006 43.0889 239.969 43.0889H239.017C238.979 43.0889 238.949 43.1105 238.949 43.1369V43.2329C238.949 43.2592 238.979 43.2808 239.017 43.2808ZM239.017 42.897H239.969C240.006 42.897 240.037 42.8754 240.037 42.849V42.753C240.037 42.7266 240.006 42.705 239.969 42.705H239.017C238.979 42.705 238.949 42.7266 238.949 42.753V42.849C238.949 42.8754 238.979 42.897 239.017 42.897Z" fill="#FFCC7E"/>
<g filter="url(#filter2_i)">
<path d="M211.346 68.632C210.578 68.632 209.958 68.516 209.486 68.284C209.022 68.052 208.586 67.668 208.178 67.132L208.946 66.472C209.282 66.936 209.626 67.264 209.978 67.456C210.33 67.64 210.774 67.732 211.31 67.732C212.022 67.732 212.562 67.608 212.93 67.36C213.306 67.104 213.494 66.732 213.494 66.244C213.494 65.964 213.418 65.736 213.266 65.56C213.122 65.384 212.866 65.232 212.498 65.104C212.13 64.968 211.586 64.828 210.866 64.684C210.058 64.524 209.462 64.252 209.078 63.868C208.694 63.484 208.502 62.976 208.502 62.344C208.502 61.608 208.766 61.028 209.294 60.604C209.83 60.18 210.562 59.968 211.49 59.968C212.858 59.968 213.826 60.42 214.394 61.324L213.626 61.948C213.346 61.588 213.034 61.32 212.69 61.144C212.354 60.96 211.95 60.868 211.478 60.868C210.902 60.868 210.45 61 210.122 61.264C209.802 61.52 209.642 61.872 209.642 62.32C209.642 62.72 209.802 63.036 210.122 63.268C210.442 63.492 210.926 63.668 211.574 63.796C212.318 63.948 212.906 64.116 213.338 64.3C213.77 64.484 214.094 64.728 214.31 65.032C214.526 65.336 214.634 65.736 214.634 66.232C214.634 67.024 214.354 67.624 213.794 68.032C213.242 68.432 212.426 68.632 211.346 68.632ZM218.63 67.816C218.958 67.816 219.238 67.768 219.47 67.672C219.71 67.576 219.942 67.42 220.166 67.204L220.814 67.792C220.574 68.08 220.274 68.292 219.914 68.428C219.562 68.564 219.126 68.632 218.606 68.632C217.782 68.632 217.158 68.456 216.734 68.104C216.318 67.744 216.11 67.212 216.11 66.508V64.72C216.11 64.104 216.322 63.62 216.746 63.268C217.178 62.908 217.766 62.728 218.51 62.728C219.278 62.728 219.87 62.916 220.286 63.292C220.71 63.668 220.922 64.208 220.922 64.912C220.922 65.384 220.838 65.708 220.67 65.884C220.51 66.06 220.198 66.148 219.734 66.148H217.166V66.52C217.166 66.952 217.286 67.276 217.526 67.492C217.766 67.708 218.134 67.816 218.63 67.816ZM218.51 63.544C218.086 63.544 217.754 63.656 217.514 63.88C217.282 64.104 217.166 64.408 217.166 64.792V65.392H219.218C219.466 65.392 219.634 65.352 219.722 65.272C219.818 65.192 219.866 65.04 219.866 64.816C219.866 64.416 219.746 64.104 219.506 63.88C219.266 63.656 218.934 63.544 218.51 63.544ZM224.86 68.632C224.052 68.632 223.432 68.448 223 68.08C222.576 67.712 222.364 67.184 222.364 66.496V64.864C222.364 64.184 222.58 63.66 223.012 63.292C223.452 62.916 224.072 62.728 224.872 62.728C225.832 62.728 226.548 63.036 227.02 63.652L226.3 64.252C226.076 63.996 225.86 63.816 225.652 63.712C225.444 63.608 225.184 63.556 224.872 63.556C224.408 63.556 224.048 63.672 223.792 63.904C223.544 64.128 223.42 64.448 223.42 64.864V66.496C223.42 66.912 223.544 67.236 223.792 67.468C224.04 67.692 224.396 67.804 224.86 67.804C225.188 67.804 225.464 67.748 225.688 67.636C225.92 67.524 226.132 67.348 226.324 67.108L227.044 67.708C226.812 68.02 226.52 68.252 226.168 68.404C225.816 68.556 225.38 68.632 224.86 68.632ZM233.363 67.228C233.363 67.396 233.395 67.536 233.459 67.648C233.523 67.752 233.639 67.872 233.807 68.008L233.099 68.632C232.843 68.488 232.655 68.332 232.535 68.164C232.415 67.996 232.343 67.78 232.319 67.516C232.127 67.868 231.871 68.144 231.551 68.344C231.239 68.536 230.863 68.632 230.423 68.632C229.823 68.632 229.359 68.464 229.031 68.128C228.703 67.784 228.539 67.296 228.539 66.664V62.86H229.595V66.58C229.595 66.964 229.695 67.264 229.895 67.48C230.095 67.696 230.371 67.804 230.723 67.804C231.107 67.804 231.435 67.672 231.707 67.408C231.979 67.136 232.179 66.772 232.307 66.316V62.86H233.363V67.228ZM238.318 62.728C238.662 62.728 238.95 62.812 239.182 62.98L238.918 63.904C238.646 63.744 238.358 63.664 238.054 63.664C237.694 63.664 237.386 63.816 237.13 64.12C236.874 64.424 236.686 64.832 236.566 65.344V68.5H235.51V64.12C235.51 63.952 235.478 63.816 235.414 63.712C235.35 63.6 235.234 63.48 235.066 63.352L235.774 62.728C236.054 62.88 236.25 63.048 236.362 63.232C236.482 63.408 236.55 63.656 236.566 63.976C236.742 63.584 236.978 63.28 237.274 63.064C237.57 62.84 237.918 62.728 238.318 62.728ZM242.553 67.816C242.881 67.816 243.161 67.768 243.393 67.672C243.633 67.576 243.865 67.42 244.089 67.204L244.737 67.792C244.497 68.08 244.197 68.292 243.837 68.428C243.485 68.564 243.049 68.632 242.529 68.632C241.705 68.632 241.081 68.456 240.657 68.104C240.241 67.744 240.033 67.212 240.033 66.508V64.72C240.033 64.104 240.245 63.62 240.669 63.268C241.101 62.908 241.689 62.728 242.433 62.728C243.201 62.728 243.793 62.916 244.209 63.292C244.633 63.668 244.845 64.208 244.845 64.912C244.845 65.384 244.761 65.708 244.593 65.884C244.433 66.06 244.121 66.148 243.657 66.148H241.089V66.52C241.089 66.952 241.209 67.276 241.449 67.492C241.689 67.708 242.057 67.816 242.553 67.816ZM242.433 63.544C242.009 63.544 241.677 63.656 241.437 63.88C241.205 64.104 241.089 64.408 241.089 64.792V65.392H243.141C243.389 65.392 243.557 65.352 243.645 65.272C243.741 65.192 243.789 65.04 243.789 64.816C243.789 64.416 243.669 64.104 243.429 63.88C243.189 63.656 242.857 63.544 242.433 63.544ZM200.72 72.1H204.224C205.096 72.1 205.752 72.312 206.192 72.736C206.64 73.16 206.864 73.788 206.864 74.62C206.864 75.452 206.64 76.08 206.192 76.504C205.752 76.928 205.096 77.14 204.224 77.14H201.86V80.5H200.72V72.1ZM204.188 76.24C204.668 76.24 205.044 76.1 205.316 75.82C205.588 75.54 205.724 75.14 205.724 74.62C205.724 74.1 205.588 73.7 205.316 73.42C205.044 73.14 204.668 73 204.188 73H201.86V76.24H204.188ZM212.712 79.24C212.712 79.408 212.744 79.548 212.808 79.66C212.872 79.764 212.988 79.88 213.156 80.008L212.448 80.632C212.04 80.424 211.792 80.128 211.704 79.744C211.512 80.016 211.244 80.232 210.9 80.392C210.564 80.552 210.176 80.632 209.736 80.632C209.136 80.632 208.672 80.492 208.344 80.212C208.016 79.924 207.852 79.512 207.852 78.976C207.852 78.424 208.044 78.012 208.428 77.74C208.812 77.468 209.34 77.296 210.012 77.224L210.828 77.128C211.172 77.088 211.396 77.028 211.5 76.948C211.612 76.86 211.664 76.712 211.656 76.504C211.624 76.192 211.496 75.944 211.272 75.76C211.056 75.576 210.724 75.484 210.276 75.484C209.948 75.484 209.668 75.54 209.436 75.652C209.204 75.756 208.992 75.928 208.8 76.168L208.08 75.652C208.28 75.348 208.556 75.12 208.908 74.968C209.268 74.808 209.724 74.728 210.276 74.728C211.084 74.728 211.692 74.896 212.1 75.232C212.508 75.568 212.712 76.056 212.712 76.696V79.24ZM209.988 79.852C210.492 79.852 210.896 79.72 211.2 79.456C211.512 79.192 211.668 78.856 211.668 78.448V77.644C211.484 77.748 211.2 77.816 210.816 77.848L210.108 77.92C209.276 78.016 208.86 78.356 208.86 78.94C208.86 79.236 208.956 79.464 209.148 79.624C209.34 79.776 209.62 79.852 209.988 79.852ZM219.57 74.86V81.172C219.57 81.876 219.382 82.392 219.006 82.72C218.63 83.056 218.042 83.224 217.242 83.224H215.754V82.408H217.242C217.674 82.408 217.994 82.304 218.202 82.096C218.41 81.896 218.514 81.584 218.514 81.16V79.612C218.13 80.292 217.506 80.632 216.642 80.632C216.034 80.632 215.558 80.46 215.214 80.116C214.878 79.764 214.71 79.276 214.71 78.652V76.132C214.71 75.964 214.678 75.828 214.614 75.724C214.55 75.612 214.434 75.488 214.266 75.352L214.974 74.728C215.27 74.888 215.474 75.072 215.586 75.28C215.706 75.48 215.766 75.764 215.766 76.132V78.568C215.766 78.96 215.866 79.264 216.066 79.48C216.274 79.688 216.562 79.792 216.93 79.792C217.362 79.792 217.722 79.644 218.01 79.348C218.298 79.044 218.466 78.668 218.514 78.22V74.86H219.57ZM227.792 74.728C228.344 74.728 228.768 74.896 229.064 75.232C229.368 75.56 229.52 76.032 229.52 76.648V80.5H228.464V76.78C228.464 76.388 228.38 76.088 228.212 75.88C228.044 75.664 227.808 75.556 227.504 75.556C227.144 75.556 226.832 75.696 226.568 75.976C226.312 76.248 226.132 76.616 226.028 77.08V80.5H224.972V76.78C224.972 76.388 224.888 76.088 224.72 75.88C224.552 75.664 224.316 75.556 224.012 75.556C223.652 75.556 223.34 75.7 223.076 75.988C222.812 76.268 222.632 76.632 222.536 77.08V80.5H221.48V76.12C221.48 75.952 221.448 75.816 221.384 75.712C221.32 75.6 221.204 75.48 221.036 75.352L221.732 74.728C222.212 74.968 222.472 75.332 222.512 75.82C222.704 75.468 222.952 75.2 223.256 75.016C223.56 74.824 223.908 74.728 224.3 74.728C224.74 74.728 225.096 74.84 225.368 75.064C225.648 75.28 225.832 75.596 225.92 76.012C226.064 75.62 226.3 75.308 226.628 75.076C226.964 74.844 227.352 74.728 227.792 74.728ZM233.844 79.816C234.172 79.816 234.452 79.768 234.684 79.672C234.924 79.576 235.156 79.42 235.38 79.204L236.028 79.792C235.788 80.08 235.488 80.292 235.128 80.428C234.776 80.564 234.34 80.632 233.82 80.632C232.996 80.632 232.372 80.456 231.948 80.104C231.532 79.744 231.324 79.212 231.324 78.508V76.72C231.324 76.104 231.536 75.62 231.96 75.268C232.392 74.908 232.98 74.728 233.724 74.728C234.492 74.728 235.084 74.916 235.5 75.292C235.924 75.668 236.136 76.208 236.136 76.912C236.136 77.384 236.052 77.708 235.884 77.884C235.724 78.06 235.412 78.148 234.948 78.148H232.38V78.52C232.38 78.952 232.5 79.276 232.74 79.492C232.98 79.708 233.348 79.816 233.844 79.816ZM233.724 75.544C233.3 75.544 232.968 75.656 232.728 75.88C232.496 76.104 232.38 76.408 232.38 76.792V77.392H234.432C234.68 77.392 234.848 77.352 234.936 77.272C235.032 77.192 235.08 77.04 235.08 76.816C235.08 76.416 234.96 76.104 234.72 75.88C234.48 75.656 234.148 75.544 233.724 75.544ZM240.758 74.728C241.342 74.728 241.794 74.896 242.114 75.232C242.442 75.568 242.606 76.04 242.606 76.648V80.5H241.55V76.78C241.55 76.396 241.454 76.096 241.262 75.88C241.07 75.664 240.806 75.556 240.47 75.556C240.094 75.556 239.77 75.688 239.498 75.952C239.226 76.216 239.026 76.572 238.898 77.02V80.5H237.842V76.12C237.842 75.952 237.81 75.816 237.746 75.712C237.682 75.6 237.566 75.48 237.398 75.352L238.094 74.728C238.35 74.872 238.538 75.024 238.658 75.184C238.778 75.344 238.854 75.552 238.886 75.808C239.07 75.472 239.322 75.208 239.642 75.016C239.962 74.824 240.334 74.728 240.758 74.728ZM245.584 75.688V78.712C245.584 79.056 245.652 79.312 245.788 79.48C245.924 79.64 246.14 79.72 246.436 79.72H247.204V80.548H246.436C245.756 80.548 245.268 80.404 244.972 80.116C244.676 79.828 244.528 79.36 244.528 78.712V73.696C244.528 73.528 244.496 73.392 244.432 73.288C244.368 73.176 244.252 73.056 244.084 72.928L244.792 72.304C245.088 72.464 245.292 72.648 245.404 72.856C245.524 73.056 245.584 73.336 245.584 73.696V74.86H247.204V75.688H245.584ZM250.574 80.632C250.046 80.632 249.618 80.556 249.29 80.404C248.97 80.244 248.674 79.988 248.402 79.636L249.074 79.06C249.306 79.332 249.53 79.524 249.746 79.636C249.97 79.748 250.246 79.804 250.574 79.804C251.446 79.804 251.882 79.528 251.882 78.976C251.882 78.8 251.834 78.66 251.738 78.556C251.65 78.444 251.49 78.352 251.258 78.28C251.034 78.2 250.694 78.12 250.238 78.04C249.678 77.928 249.258 77.736 248.978 77.464C248.698 77.184 248.558 76.816 248.558 76.36C248.558 75.848 248.746 75.448 249.122 75.16C249.498 74.872 250.014 74.728 250.67 74.728C251.638 74.728 252.318 75.036 252.71 75.652L252.038 76.216C251.846 75.984 251.642 75.816 251.426 75.712C251.218 75.608 250.966 75.556 250.67 75.556C250.318 75.556 250.046 75.628 249.854 75.772C249.662 75.916 249.566 76.116 249.566 76.372C249.566 76.604 249.658 76.784 249.842 76.912C250.026 77.032 250.318 77.132 250.718 77.212C251.246 77.332 251.662 77.46 251.966 77.596C252.27 77.724 252.498 77.9 252.65 78.124C252.802 78.34 252.878 78.628 252.878 78.988C252.878 80.084 252.11 80.632 250.574 80.632Z" fill="#E9E9E9"/>
</g>
<path d="M336.87 42.9531H336.329V39.2823C336.329 38.851 336.157 38.4368 335.852 38.1311L332.475 34.7388C332.171 34.4331 331.758 34.2599 331.329 34.2599H329.838V32.63C329.838 31.7301 329.111 31 328.215 31H319.561C318.665 31 317.938 31.7301 317.938 32.63V34.2599H316.045C315.896 34.2599 315.774 34.3822 315.774 34.5316V35.0749C315.774 35.2243 315.896 35.3466 316.045 35.3466H325.24C325.389 35.3466 325.511 35.4688 325.511 35.6183V36.1616C325.511 36.311 325.389 36.4332 325.24 36.4332H317.127C316.978 36.4332 316.856 36.5555 316.856 36.7049V37.2482C316.856 37.3976 316.978 37.5199 317.127 37.5199H324.159C324.307 37.5199 324.429 37.6421 324.429 37.7916V38.3349C324.429 38.4843 324.307 38.6065 324.159 38.6065H316.045C315.896 38.6065 315.774 38.7288 315.774 38.8782V39.4215C315.774 39.5709 315.896 39.6932 316.045 39.6932H323.077C323.225 39.6932 323.347 39.8154 323.347 39.9649V40.5082C323.347 40.6576 323.225 40.7798 323.077 40.7798H317.938V45.1264C317.938 46.9262 319.392 48.3864 321.184 48.3864C322.975 48.3864 324.429 46.9262 324.429 45.1264H328.756C328.756 46.9262 330.21 48.3864 332.002 48.3864C333.793 48.3864 335.247 46.9262 335.247 45.1264H336.87C337.167 45.1264 337.411 44.8819 337.411 44.5831V43.4965C337.411 43.1976 337.167 42.9531 336.87 42.9531ZM321.184 46.7564C320.288 46.7564 319.561 46.0263 319.561 45.1264C319.561 44.2266 320.288 43.4965 321.184 43.4965C322.079 43.4965 322.806 44.2266 322.806 45.1264C322.806 46.0263 322.079 46.7564 321.184 46.7564ZM332.002 46.7564C331.106 46.7564 330.379 46.0263 330.379 45.1264C330.379 44.2266 331.106 43.4965 332.002 43.4965C332.898 43.4965 333.624 44.2266 333.624 45.1264C333.624 46.0263 332.898 46.7564 332.002 46.7564ZM334.706 39.6932H329.838V35.8899H331.329L334.706 39.2823V39.6932Z" fill="#FFCC7E"/>
<path d="M295.261 34.4386C295.949 34.4386 296.204 34.767 296.227 35.2499H297.081C297.054 34.5854 296.648 33.9749 295.84 33.7779V32.9318H294.681V33.7663C294.531 33.7972 294.392 33.8474 294.256 33.9054L294.84 34.4888C294.963 34.4579 295.106 34.4386 295.261 34.4386ZM292.545 33.2872L292 33.832L293.329 35.1611C293.329 35.9647 293.932 36.4052 294.84 36.6718L296.196 38.0279C296.065 38.2172 295.79 38.3795 295.261 38.3795C294.465 38.3795 294.152 38.024 294.11 37.5681H293.26C293.306 38.4143 293.94 38.8895 294.681 39.0479V39.8863H295.84V39.0556C296.211 38.9861 296.548 38.8431 296.791 38.6229L297.649 39.4806L298.193 38.9359L292.545 33.2872Z" fill="#FFCC7E"/>
<path d="M307.569 36.2599C308.199 35.9844 308.564 36.1831 308.779 36.6163L309.561 36.2742C309.27 35.6762 308.654 35.2794 307.835 35.4224L307.496 34.6471L306.434 35.1114L306.769 35.8761C306.643 35.9648 306.536 36.0665 306.435 36.1738L307.203 36.4746C307.304 36.3968 307.427 36.3218 307.569 36.2599ZM304.619 36.2931L304.338 37.0105L306.088 37.6958C306.41 38.4321 307.139 38.5942 308.078 38.4747L309.864 39.174C309.819 39.4001 309.633 39.6587 309.148 39.8707C308.419 40.1896 307.989 39.9893 307.768 39.5886L306.989 39.9291C307.37 40.6858 308.141 40.8674 308.885 40.7153L309.22 41.4835L310.282 41.0191L309.95 40.258C310.262 40.0457 310.512 39.7801 310.647 39.4808L311.777 39.923L312.058 39.2056L304.619 36.2931Z" fill="#FFCC7E"/>
<path d="M304.1 42.691C304.643 43.1132 304.642 43.5289 304.364 43.9244L305.038 44.4485C305.425 43.9073 305.479 43.1764 304.963 42.5252L305.482 41.8572L304.567 41.1457L304.055 41.8046C303.917 41.7365 303.776 41.6907 303.634 41.6535L303.736 42.4722C303.853 42.5237 303.978 42.5962 304.1 42.691ZM302.662 40.1149L301.898 40.2106L302.131 42.0756C301.638 42.7101 301.843 43.4278 302.396 44.1955L302.635 46.0985C302.415 46.1674 302.099 46.1271 301.681 45.8022C301.052 45.3137 301.023 44.841 301.27 44.4549L300.599 43.9332C300.116 44.6297 300.324 45.3938 300.813 45.9741L300.298 46.636L301.213 47.3475L301.723 46.6917C302.059 46.8645 302.412 46.9579 302.739 46.9335L302.89 48.1371L303.654 48.0414L302.662 40.1149Z" fill="#FFCC7E"/>
<g filter="url(#filter3_i)">
<path d="M306.12 63.144C306.12 62.296 306.348 61.66 306.804 61.236C307.26 60.812 307.976 60.6 308.952 60.6H311.82V61.5H308.952C308.368 61.5 307.94 61.636 307.668 61.908C307.396 62.172 307.26 62.584 307.26 63.144V64.584H311.232V65.496H307.26V69H306.12V63.144ZM316.123 63.228C316.467 63.228 316.755 63.312 316.987 63.48L316.723 64.404C316.451 64.244 316.163 64.164 315.859 64.164C315.499 64.164 315.191 64.316 314.935 64.62C314.679 64.924 314.491 65.332 314.371 65.844V69H313.315V64.62C313.315 64.452 313.283 64.316 313.219 64.212C313.155 64.1 313.039 63.98 312.871 63.852L313.579 63.228C313.859 63.38 314.055 63.548 314.167 63.732C314.287 63.908 314.355 64.156 314.371 64.476C314.547 64.084 314.783 63.78 315.079 63.564C315.375 63.34 315.723 63.228 316.123 63.228ZM320.358 68.316C320.686 68.316 320.966 68.268 321.198 68.172C321.438 68.076 321.67 67.92 321.894 67.704L322.542 68.292C322.302 68.58 322.002 68.792 321.642 68.928C321.29 69.064 320.854 69.132 320.334 69.132C319.51 69.132 318.886 68.956 318.462 68.604C318.046 68.244 317.838 67.712 317.838 67.008V65.22C317.838 64.604 318.05 64.12 318.474 63.768C318.906 63.408 319.494 63.228 320.238 63.228C321.006 63.228 321.598 63.416 322.014 63.792C322.438 64.168 322.65 64.708 322.65 65.412C322.65 65.884 322.566 66.208 322.398 66.384C322.238 66.56 321.926 66.648 321.462 66.648H318.894V67.02C318.894 67.452 319.014 67.776 319.254 67.992C319.494 68.208 319.862 68.316 320.358 68.316ZM320.238 64.044C319.814 64.044 319.482 64.156 319.242 64.38C319.01 64.604 318.894 64.908 318.894 65.292V65.892H320.946C321.194 65.892 321.362 65.852 321.45 65.772C321.546 65.692 321.594 65.54 321.594 65.316C321.594 64.916 321.474 64.604 321.234 64.38C320.994 64.156 320.662 64.044 320.238 64.044ZM326.611 68.316C326.939 68.316 327.219 68.268 327.451 68.172C327.691 68.076 327.923 67.92 328.147 67.704L328.795 68.292C328.555 68.58 328.255 68.792 327.895 68.928C327.543 69.064 327.107 69.132 326.587 69.132C325.763 69.132 325.139 68.956 324.715 68.604C324.299 68.244 324.091 67.712 324.091 67.008V65.22C324.091 64.604 324.303 64.12 324.727 63.768C325.159 63.408 325.747 63.228 326.491 63.228C327.259 63.228 327.851 63.416 328.267 63.792C328.691 64.168 328.903 64.708 328.903 65.412C328.903 65.884 328.819 66.208 328.651 66.384C328.491 66.56 328.179 66.648 327.715 66.648H325.147V67.02C325.147 67.452 325.267 67.776 325.507 67.992C325.747 68.208 326.115 68.316 326.611 68.316ZM326.491 64.044C326.067 64.044 325.735 64.156 325.495 64.38C325.263 64.604 325.147 64.908 325.147 65.292V65.892H327.199C327.447 65.892 327.615 65.852 327.703 65.772C327.799 65.692 327.847 65.54 327.847 65.316C327.847 64.916 327.727 64.604 327.487 64.38C327.247 64.156 326.915 64.044 326.491 64.044ZM300.684 82H299.472L298.908 79.936C298.796 79.536 298.672 79.224 298.536 79C298.408 78.776 298.228 78.608 297.996 78.496C297.764 78.384 297.448 78.328 297.048 78.328H295.356V82H294.216V73.6H297.744C298.608 73.6 299.256 73.8 299.688 74.2C300.128 74.592 300.348 75.168 300.348 75.928C300.348 76.512 300.204 76.98 299.916 77.332C299.636 77.684 299.236 77.904 298.716 77.992C299.084 78.12 299.368 78.34 299.568 78.652C299.768 78.964 299.948 79.396 300.108 79.948L300.684 82ZM297.696 77.428C298.16 77.428 298.528 77.304 298.8 77.056C299.072 76.8 299.208 76.436 299.208 75.964C299.208 75.492 299.072 75.132 298.8 74.884C298.536 74.628 298.168 74.5 297.696 74.5H295.356V77.428H297.696ZM304.631 81.316C304.959 81.316 305.239 81.268 305.471 81.172C305.711 81.076 305.943 80.92 306.167 80.704L306.815 81.292C306.575 81.58 306.275 81.792 305.915 81.928C305.563 82.064 305.127 82.132 304.607 82.132C303.783 82.132 303.159 81.956 302.735 81.604C302.319 81.244 302.111 80.712 302.111 80.008V78.22C302.111 77.604 302.323 77.12 302.747 76.768C303.179 76.408 303.767 76.228 304.511 76.228C305.279 76.228 305.871 76.416 306.287 76.792C306.711 77.168 306.923 77.708 306.923 78.412C306.923 78.884 306.839 79.208 306.671 79.384C306.511 79.56 306.199 79.648 305.735 79.648H303.167V80.02C303.167 80.452 303.287 80.776 303.527 80.992C303.767 81.208 304.135 81.316 304.631 81.316ZM304.511 77.044C304.087 77.044 303.755 77.156 303.515 77.38C303.283 77.604 303.167 77.908 303.167 78.292V78.892H305.219C305.467 78.892 305.635 78.852 305.723 78.772C305.819 78.692 305.867 78.54 305.867 78.316C305.867 77.916 305.747 77.604 305.507 77.38C305.267 77.156 304.935 77.044 304.511 77.044ZM309.509 77.188V80.212C309.509 80.556 309.577 80.812 309.713 80.98C309.849 81.14 310.065 81.22 310.361 81.22H311.129V82.048H310.361C309.681 82.048 309.193 81.904 308.897 81.616C308.601 81.328 308.453 80.86 308.453 80.212V75.196C308.453 75.028 308.421 74.892 308.357 74.788C308.293 74.676 308.177 74.556 308.009 74.428L308.717 73.804C309.013 73.964 309.217 74.148 309.329 74.356C309.449 74.556 309.509 74.836 309.509 75.196V76.36H311.129V77.188H309.509ZM317.535 80.728C317.535 80.896 317.567 81.036 317.631 81.148C317.695 81.252 317.811 81.372 317.979 81.508L317.271 82.132C317.015 81.988 316.827 81.832 316.707 81.664C316.587 81.496 316.515 81.28 316.491 81.016C316.299 81.368 316.043 81.644 315.723 81.844C315.411 82.036 315.035 82.132 314.595 82.132C313.995 82.132 313.531 81.964 313.203 81.628C312.875 81.284 312.711 80.796 312.711 80.164V76.36H313.767V80.08C313.767 80.464 313.867 80.764 314.067 80.98C314.267 81.196 314.543 81.304 314.895 81.304C315.279 81.304 315.607 81.172 315.879 80.908C316.151 80.636 316.351 80.272 316.479 79.816V76.36H317.535V80.728ZM322.491 76.228C322.835 76.228 323.123 76.312 323.355 76.48L323.091 77.404C322.819 77.244 322.531 77.164 322.227 77.164C321.867 77.164 321.559 77.316 321.303 77.62C321.047 77.924 320.859 78.332 320.739 78.844V82H319.683V77.62C319.683 77.452 319.651 77.316 319.587 77.212C319.523 77.1 319.407 76.98 319.239 76.852L319.947 76.228C320.227 76.38 320.423 76.548 320.535 76.732C320.655 76.908 320.723 77.156 320.739 77.476C320.915 77.084 321.151 76.78 321.447 76.564C321.743 76.34 322.091 76.228 322.491 76.228ZM327.68 76.228C328.264 76.228 328.716 76.396 329.036 76.732C329.364 77.068 329.528 77.54 329.528 78.148V82H328.472V78.28C328.472 77.896 328.376 77.596 328.184 77.38C327.992 77.164 327.728 77.056 327.392 77.056C327.016 77.056 326.692 77.188 326.42 77.452C326.148 77.716 325.948 78.072 325.82 78.52V82H324.764V77.62C324.764 77.452 324.732 77.316 324.668 77.212C324.604 77.1 324.488 76.98 324.32 76.852L325.016 76.228C325.272 76.372 325.46 76.524 325.58 76.684C325.7 76.844 325.776 77.052 325.808 77.308C325.992 76.972 326.244 76.708 326.564 76.516C326.884 76.324 327.256 76.228 327.68 76.228ZM333.294 82.132C332.766 82.132 332.338 82.056 332.01 81.904C331.69 81.744 331.394 81.488 331.122 81.136L331.794 80.56C332.026 80.832 332.25 81.024 332.466 81.136C332.69 81.248 332.966 81.304 333.294 81.304C334.166 81.304 334.602 81.028 334.602 80.476C334.602 80.3 334.554 80.16 334.458 80.056C334.37 79.944 334.21 79.852 333.978 79.78C333.754 79.7 333.414 79.62 332.958 79.54C332.398 79.428 331.978 79.236 331.698 78.964C331.418 78.684 331.278 78.316 331.278 77.86C331.278 77.348 331.466 76.948 331.842 76.66C332.218 76.372 332.734 76.228 333.39 76.228C334.358 76.228 335.038 76.536 335.43 77.152L334.758 77.716C334.566 77.484 334.362 77.316 334.146 77.212C333.938 77.108 333.686 77.056 333.39 77.056C333.038 77.056 332.766 77.128 332.574 77.272C332.382 77.416 332.286 77.616 332.286 77.872C332.286 78.104 332.378 78.284 332.562 78.412C332.746 78.532 333.038 78.632 333.438 78.712C333.966 78.832 334.382 78.96 334.686 79.096C334.99 79.224 335.218 79.4 335.37 79.624C335.522 79.84 335.598 80.128 335.598 80.488C335.598 81.584 334.83 82.132 333.294 82.132ZM341.42 75.232H339.656L340.544 76.768L340.028 77.068L339.152 75.544L338.264 77.068L337.748 76.768L338.636 75.232H336.86V74.656H338.636L337.748 73.12L338.264 72.82L339.152 74.344L340.028 72.82L340.544 73.12L339.656 74.656H341.42V75.232Z" fill="#E9E9E9"/>
</g>
</g>
<defs>
<filter id="filter0_i" x="32.2109" y="59.204" width="35.1397" height="21.928" filterUnits="userSpaceOnUse" color-interpolation-filters="sRGB">
<feFlood flood-opacity="0" result="BackgroundImageFix"/>
<feBlend mode="normal" in="SourceGraphic" in2="BackgroundImageFix" result="shape"/>
<feColorMatrix in="SourceAlpha" type="matrix" values="0 0 0 0 0 0 0 0 0 0 0 0 0 0 0 0 0 0 127 0" result="hardAlpha"/>
<feOffset dy="1"/>
<feGaussianBlur stdDeviation="0.5"/>
<feComposite in2="hardAlpha" operator="arithmetic" k2="-1" k3="1"/>
<feColorMatrix type="matrix" values="0 0 0 0 0.745098 0 0 0 0 0.745098 0 0 0 0 0.745098 0 0 0 1 0"/>
<feBlend mode="normal" in2="shape" result="effect1_innerShadow"/>
</filter>
<filter id="filter1_i" x="106.142" y="59.6" width="53.7518" height="24.028" filterUnits="userSpaceOnUse" color-interpolation-filters="sRGB">
<feFlood flood-opacity="0" result="BackgroundImageFix"/>
<feBlend mode="normal" in="SourceGraphic" in2="BackgroundImageFix" result="shape"/>
<feColorMatrix in="SourceAlpha" type="matrix" values="0 0 0 0 0 0 0 0 0 0 0 0 0 0 0 0 0 0 127 0" result="hardAlpha"/>
<feOffset dy="1"/>
<feGaussianBlur stdDeviation="0.5"/>
<feComposite in2="hardAlpha" operator="arithmetic" k2="-1" k3="1"/>
<feColorMatrix type="matrix" values="0 0 0 0 0.745098 0 0 0 0 0.745098 0 0 0 0 0.745098 0 0 0 1 0"/>
<feBlend mode="normal" in2="shape" result="effect1_innerShadow"/>
</filter>
<filter id="filter2_i" x="200.72" y="59.968" width="52.1585" height="24.256" filterUnits="userSpaceOnUse" color-interpolation-filters="sRGB">
<feFlood flood-opacity="0" result="BackgroundImageFix"/>
<feBlend mode="normal" in="SourceGraphic" in2="BackgroundImageFix" result="shape"/>
<feColorMatrix in="SourceAlpha" type="matrix" values="0 0 0 0 0 0 0 0 0 0 0 0 0 0 0 0 0 0 127 0" result="hardAlpha"/>
<feOffset dy="1"/>
<feGaussianBlur stdDeviation="0.5"/>
<feComposite in2="hardAlpha" operator="arithmetic" k2="-1" k3="1"/>
<feColorMatrix type="matrix" values="0 0 0 0 0.745098 0 0 0 0 0.745098 0 0 0 0 0.745098 0 0 0 1 0"/>
<feBlend mode="normal" in2="shape" result="effect1_innerShadow"/>
</filter>
<filter id="filter3_i" x="294.216" y="60.6" width="47.2034" height="22.532" filterUnits="userSpaceOnUse" color-interpolation-filters="sRGB">
<feFlood flood-opacity="0" result="BackgroundImageFix"/>
<feBlend mode="normal" in="SourceGraphic" in2="BackgroundImageFix" result="shape"/>
<feColorMatrix in="SourceAlpha" type="matrix" values="0 0 0 0 0 0 0 0 0 0 0 0 0 0 0 0 0 0 127 0" result="hardAlpha"/>
<feOffset dy="1"/>
<feGaussianBlur stdDeviation="0.5"/>
<feComposite in2="hardAlpha" operator="arithmetic" k2="-1" k3="1"/>
<feColorMatrix type="matrix" values="0 0 0 0 0.745098 0 0 0 0 0.745098 0 0 0 0 0.745098 0 0 0 1 0"/>
<feBlend mode="normal" in2="shape" result="effect1_innerShadow"/>
</filter>
<clipPath id="clip0">
<rect width="375" height="2629" fill="white" transform="translate(0 -1965)"/>
</clipPath>
</defs>
</svg>
