<svg width="256" height="259" viewBox="0 0 256 259" fill="none" xmlns="http://www.w3.org/2000/svg">
<g clip-path="url(#clip0)">
<path d="M67.663 221.823L71.848 223.916C89.288 234.379 108.819 239.262 128.351 239.262C189.736 239.262 239.96 189.038 239.96 127.653C239.96 98.356 228.101 69.756 207.175 48.829C186.248 27.902 158.345 16.044 128.351 16.044C66.966 16.044 16.741 66.268 17.439 128.351C17.439 149.277 23.717 169.507 34.18 186.945L36.97 191.131L25.81 232.287L67.663 221.823Z" fill="#FFCC7E"/>
<path d="M219.033 37.668C195.316 13.254 162.531 0 129.048 0C57.898 0 0.698 57.897 1.395 128.35C1.395 150.672 7.673 172.297 18.137 191.828L0 258.096L67.663 240.657C86.497 251.121 107.423 256.004 128.351 256.004C198.804 256.004 256.004 198.106 256.004 127.654C256.004 93.473 242.749 61.385 219.033 37.668ZM129.048 234.38C110.214 234.38 91.38 229.498 75.336 219.732L71.151 217.639L30.693 228.102L41.156 188.342L38.366 184.156C7.673 134.63 22.322 69.058 72.546 38.365C122.77 7.673 187.643 22.322 218.336 72.546C249.028 122.77 234.379 187.643 184.156 218.336C168.111 228.799 148.58 234.379 129.048 234.379V234.38ZM190.433 156.952L182.76 153.464C182.76 153.464 171.6 148.581 164.624 145.093C164.275 145.093 163.926 144.919 163.577 144.744C163.229 144.57 162.88 144.395 162.531 144.395C160.438 144.395 159.043 145.093 157.648 145.791C157.648 145.791 156.951 146.488 147.185 157.649C146.487 159.044 145.092 159.742 143.697 159.742H142.999C142.302 159.742 140.907 159.044 140.209 158.347L136.721 156.952C129.048 153.464 122.073 149.278 116.492 143.698C115.794 143 114.923 142.303 114.05 141.605C113.178 140.908 112.307 140.211 111.609 139.513C106.726 134.63 101.843 129.049 98.356 122.771L97.658 121.376C97.2275 120.945 97.0629 120.514 96.8355 119.919C96.6947 119.551 96.5299 119.119 96.263 118.586C96.263 117.191 96.263 115.796 96.961 115.098C96.961 115.098 99.751 111.61 101.843 109.518C102.541 108.82 103.064 107.948 103.588 107.076C104.111 106.204 104.634 105.332 105.331 104.635C106.726 102.542 107.424 99.752 106.726 97.659C106.029 94.171 97.658 75.337 95.566 71.152C94.17 69.059 92.776 68.362 90.683 67.664H83.01C82.312 67.664 81.6145 67.8385 80.917 68.013C80.2195 68.1875 79.522 68.362 78.824 68.362L78.126 69.059C77.429 69.4077 76.732 69.9305 76.035 70.4532C75.337 70.9767 74.639 71.5003 73.941 71.849C73.2435 72.547 72.7203 73.2445 72.197 73.942C71.6738 74.6395 71.1505 75.337 70.453 76.035C65.57 82.313 62.78 89.986 62.78 97.659C62.78 103.239 64.175 108.82 66.268 113.703L66.966 115.796C73.244 129.049 81.614 140.908 92.776 151.371L95.566 154.161C96.2922 154.888 97.0185 155.53 97.7158 156.147C99.027 157.307 100.235 158.375 101.146 159.741C115.795 172.298 132.536 181.366 151.37 186.249C152.416 186.597 153.636 186.772 154.856 186.946C156.077 187.12 157.299 187.295 158.346 187.644H165.321C168.809 187.644 172.994 186.249 175.785 184.854C176.702 184.242 177.486 183.899 178.194 183.588C179.1 183.191 179.884 182.847 180.667 182.064L182.063 180.668C182.76 179.97 183.458 179.447 184.156 178.924C184.853 178.402 185.551 177.879 186.248 177.181C187.643 175.786 189.038 174.391 189.736 172.995C191.129 170.209 191.826 166.727 192.523 163.245L192.526 163.23V158.347C192.526 158.347 191.828 157.649 190.433 156.952Z" fill="white"/>
<path d="M219.033 37.668C195.316 13.254 162.531 0 129.048 0C57.898 0 0.698 57.897 1.395 128.35C1.395 150.672 7.673 172.297 18.137 191.828L0 258.096L67.663 240.657C86.497 251.121 107.423 256.004 128.351 256.004C198.804 256.004 256.004 198.106 256.004 127.654C256.004 93.473 242.749 61.385 219.033 37.668ZM129.048 234.38C110.214 234.38 91.38 229.498 75.336 219.732L71.151 217.639L30.693 228.102L41.156 188.342L38.366 184.156C7.673 134.63 22.322 69.058 72.546 38.365C122.77 7.673 187.643 22.322 218.336 72.546C249.028 122.77 234.379 187.643 184.156 218.336C168.111 228.799 148.58 234.379 129.048 234.379V234.38ZM190.433 156.952L182.76 153.464C182.76 153.464 171.6 148.581 164.624 145.093C164.275 145.093 163.926 144.919 163.577 144.744C163.229 144.57 162.88 144.395 162.531 144.395C160.438 144.395 159.043 145.093 157.648 145.791C157.648 145.791 156.951 146.488 147.185 157.649C146.487 159.044 145.092 159.742 143.697 159.742H142.999C142.302 159.742 140.907 159.044 140.209 158.347L136.721 156.952C129.048 153.464 122.073 149.278 116.492 143.698C115.794 143 114.923 142.303 114.05 141.605C113.178 140.908 112.307 140.211 111.609 139.513C106.726 134.63 101.843 129.049 98.356 122.771L97.658 121.376C97.2275 120.945 97.0629 120.514 96.8355 119.919C96.6947 119.551 96.5299 119.119 96.263 118.586C96.263 117.191 96.263 115.796 96.961 115.098C96.961 115.098 99.751 111.61 101.843 109.518C102.541 108.82 103.064 107.948 103.588 107.076C104.111 106.204 104.634 105.332 105.331 104.635C106.726 102.542 107.424 99.752 106.726 97.659C106.029 94.171 97.658 75.337 95.566 71.152C94.17 69.059 92.776 68.362 90.683 67.664H83.01C82.312 67.664 81.6145 67.8385 80.917 68.013C80.2195 68.1875 79.522 68.362 78.824 68.362L78.126 69.059C77.429 69.4077 76.732 69.9305 76.035 70.4532C75.337 70.9767 74.639 71.5003 73.941 71.849C73.2435 72.547 72.7203 73.2445 72.197 73.942C71.6738 74.6395 71.1505 75.337 70.453 76.035C65.57 82.313 62.78 89.986 62.78 97.659C62.78 103.239 64.175 108.82 66.268 113.703L66.966 115.796C73.244 129.049 81.614 140.908 92.776 151.371L95.566 154.161C96.2922 154.888 97.0185 155.53 97.7158 156.147C99.027 157.307 100.235 158.375 101.146 159.741C115.795 172.298 132.536 181.366 151.37 186.249C152.416 186.597 153.636 186.772 154.856 186.946C156.077 187.12 157.299 187.295 158.346 187.644H165.321C168.809 187.644 172.994 186.249 175.785 184.854C176.702 184.242 177.486 183.899 178.194 183.588C179.1 183.191 179.884 182.847 180.667 182.064L182.063 180.668C182.76 179.97 183.458 179.447 184.156 178.924C184.853 178.402 185.551 177.879 186.248 177.181C187.643 175.786 189.038 174.391 189.736 172.995C191.129 170.209 191.826 166.727 192.523 163.245L192.526 163.23V158.347C192.526 158.347 191.828 157.649 190.433 156.952Z" stroke="black"/>
</g>
<defs>
<clipPath id="clip0">
<rect width="256" height="259" fill="white"/>
</clipPath>
</defs>
</svg>
